<svg width="33" height="38" viewBox="0 0 33 38" fill="none" xmlns="http://www.w3.org/2000/svg">
<path d="M2.58301 25.0575C2.58301 25.0575 3.12593 31.749 8.31083 34.9862C13.4889 38.2233 18.5177 37.9926 22.42 36.8117C26.3222 35.6241 28.9554 32.1019 29.8173 30.4731C30.6792 28.8444 30.9574 26.6591 30.9778 25.4375L30.6724 25.5258C30.6724 25.5258 27.4149 27.6703 24.5985 28.2675C24.5985 28.2675 23.0376 30.8735 22.9154 30.8735C22.7933 30.8735 22.2639 30.8735 22.2639 30.8735L22.1078 31.1789C22.1078 31.1789 21.3342 33.6696 20.5266 34.545L12.152 34.4297C12.152 34.4297 10.4622 32.9298 10.1432 30.636L9.87173 30.2424L8.65694 29.6316L7.57788 27.616C7.57788 27.616 2.91555 24.8946 2.88161 24.881C2.84768 24.8675 2.73231 24.881 2.68481 24.881C2.6373 24.881 2.58301 25.0575 2.58301 25.0575Z" fill="white"/>
<path d="M21.2798 8.34991C19.6103 7.56946 18.2802 7.31836 17.1197 7.31836C16.0542 7.31836 15.1244 7.52874 14.215 7.73912C11.8601 8.28205 9.80381 9.62577 8.43293 11.526C7.29279 13.1073 6.70915 14.9193 6.69558 16.9009C6.68201 18.4347 7.18421 19.7241 8.18861 20.7285C10.4485 23.002 14.7987 23.4771 18.0494 23.4771C20.1668 23.4771 27.0958 23.1174 27.3673 18.489C27.6048 14.451 24.9852 10.0873 21.2798 8.34991Z" fill="#242568"/>
<path d="M17.981 4.8457C15.6804 4.8457 13.0336 5.88404 10.5294 7.7639C8.09982 9.58948 6.00958 12.0326 4.6387 14.6522C2.01232 19.6742 2.62311 24.1601 2.68419 24.547C3.85825 25.626 7.53654 27.6009 7.57048 27.6212C7.58405 27.628 7.59762 27.6416 7.60441 27.6484L8.75812 29.6504L10.0883 30.3562C10.2036 29.8065 10.6787 27.6959 11.113 27.4041C11.6152 27.0715 19.2704 27.1394 20.3156 27.4855C21.3743 27.8384 22.1276 30.363 22.2497 30.7906H22.9012C23.0641 30.6209 23.9871 29.1414 24.5436 28.2252C24.5571 28.2049 24.5707 28.1913 24.5911 28.1913C27.7875 27.4244 30.6514 25.4631 30.9772 25.2324C31.3369 19.3485 29.1245 13.2406 25.0458 8.89725C22.6908 6.39982 19.9898 4.8457 17.981 4.8457ZM27.5296 18.5002C27.2514 23.2711 20.207 23.6376 18.0556 23.6376C14.771 23.6376 10.3733 23.1489 8.07947 20.8415C7.04792 19.8032 6.53214 18.473 6.53893 16.8986C6.5525 14.883 7.14971 13.0438 8.31021 11.4354C9.70144 9.50125 11.7917 8.13716 14.1805 7.58746C16.0197 7.16669 18.1032 6.69164 21.3471 8.21182C23.1591 9.06013 24.7811 10.5532 25.9144 12.4127C27.0749 14.3061 27.645 16.471 27.5296 18.5002Z" fill="white"/>
<path d="M12.1529 34.3683C12.1596 34.3751 12.1596 34.3751 12.1596 34.3751C12.37 34.6194 20.3781 34.7552 20.3849 34.7552C20.3985 34.7348 21.6133 33.0042 22.1019 30.8801C22.034 30.6358 21.2671 27.9822 20.256 27.6429C19.7062 27.4597 17.4599 27.3647 15.4715 27.3511C13.2183 27.3375 11.3792 27.4189 11.1892 27.5479C10.8363 27.7854 10.368 29.7467 10.2119 30.4932C10.2526 32.6514 12.1325 34.348 12.1529 34.3683Z" fill="#3DC6F1"/>
<g opacity="0.25">
<path d="M7.99197 30.3899C8.03269 30.4442 10.1704 31.3739 10.1704 31.3739C10.1094 31.1025 10.0686 30.8174 10.0619 30.5188L8.66384 29.7723C8.65026 29.7655 8.63669 29.752 8.6299 29.7452L7.4762 27.7431C7.23867 27.6142 4.19152 25.7547 2.73242 24.791C2.78671 25.015 2.70528 25.5104 2.85458 26.0329C2.85458 26.0329 6.33606 27.8992 6.89256 28.2386C7.44905 28.5779 7.95125 30.3424 7.99197 30.3899Z" fill="#232764"/>
</g>
<g opacity="0.25">
<path d="M23.6416 31.381C23.6823 31.3267 24.7274 29.1346 25.3246 28.8971C25.9422 28.6528 30.6249 26.7458 30.9438 26.6168C31.1067 26.1214 30.9167 25.5717 30.9778 25.3613C29.7766 26.0671 26.7023 27.8316 24.646 28.3338C23.0443 30.9466 22.9629 30.9466 22.9086 30.9466H22.2367C22.1757 31.2113 22.101 31.4624 22.0264 31.7135C22.0264 31.7135 23.6008 31.4353 23.6416 31.381Z" fill="#232764"/>
</g>
<g opacity="0.25">
<path d="M12.4442 33.9799C12.8921 34.5432 13.5843 34.3939 14.3037 34.4753L16.1361 34.455L18.4638 34.5364C19.2036 34.5093 19.7668 34.6925 20.1401 34.0478C20.303 33.7695 20.4659 33.5117 20.5812 33.2673C21.1038 32.1815 21.3549 31.5504 21.4906 30.5527C21.4906 30.5527 20.778 32.1815 19.3868 33.1452C17.9956 34.1089 16.1496 33.8713 16.1496 33.8713C16.1496 33.8713 14.2901 33.9664 12.9057 33.0027C11.5144 32.0458 10.8154 30.5527 10.8154 30.5527C10.9512 31.5436 11.433 32.4462 11.942 33.2673C12.0913 33.5049 12.2542 33.7424 12.4442 33.9799Z" fill="#232764"/>
</g>
<g opacity="0.25">
<path d="M24.232 27.452L30.177 24.6763C30.1973 24.2419 30.1363 23 30.1363 23C29.1454 23.8144 26.1933 25.0631 26.1933 25.0631L26.139 24.3641C26.1119 24.018 25.7182 23.828 25.4332 24.0248C21.9924 26.305 16.8618 26.2236 16.8618 26.2236C16.8618 26.2236 11.7312 26.305 8.29725 24.0316C8.00543 23.8415 7.6186 24.0248 7.59145 24.3709L7.53716 25.0699C7.53716 25.0699 4.59181 23.8144 3.5942 23.0068C3.5942 23.0068 3.24808 23.699 3.26844 24.1266L8.10723 26.9498L9.13878 29.0943L10.245 29.6372C10.4486 28.8025 10.7879 27.6216 11.1069 27.4045C11.6091 27.0719 19.2643 27.1398 20.3094 27.4859C21.1306 27.7573 21.7685 29.3386 22.0739 30.2344L22.7525 30.1462L24.232 27.452Z" fill="#242568"/>
</g>
<g opacity="0.4">
<path d="M5.31017 29.2847C5.45947 29.3797 6.38922 29.6172 6.42994 29.6715C6.47066 29.7258 7.29183 31.056 7.69223 31.4632C7.69223 31.4632 6.77605 29.4136 6.72855 29.3593C6.68104 29.305 4.85547 28.7214 4.85547 28.7553C4.85547 28.7893 5.15408 29.1897 5.31017 29.2847Z" fill="white"/>
</g>
<g opacity="0.4">
<path d="M26.5396 29.6721C26.5803 29.6178 27.5101 29.3803 27.6594 29.2853C27.8087 29.1903 28.1073 28.7967 28.1073 28.7559C28.1073 28.7152 26.2817 29.2989 26.2342 29.3599C26.1867 29.4142 25.2705 31.4638 25.2705 31.4638C25.6709 31.0566 26.4989 29.7264 26.5396 29.6721Z" fill="white"/>
</g>
<g opacity="0.4">
<path d="M21.7965 29.9623C21.6336 29.2837 20.826 28.3064 20.5952 27.8314C20.5342 27.7228 20.4731 27.6278 20.4052 27.5531C20.3984 27.5463 20.3917 27.5395 20.3849 27.5327C20.2627 27.4513 19.4415 27.3834 18.2607 27.3563C17.6024 27.3427 16.8966 27.3427 16.2858 27.3359C16.2247 27.3359 16.1637 27.3359 16.1026 27.3359C16.0008 27.3359 15.8922 27.3359 15.7836 27.3359C15.675 27.3359 15.5732 27.3359 15.4646 27.3359C15.4036 27.3359 15.3425 27.3359 15.2814 27.3359C14.6706 27.3359 13.9648 27.3427 13.3065 27.3563C12.1257 27.3834 11.3045 27.4513 11.1823 27.5327C11.1756 27.5395 11.1688 27.5463 11.162 27.5531C11.1009 27.6278 11.0398 27.7228 10.972 27.8314C10.7412 28.2996 10.4969 29.2022 10.3408 29.8809C10.3408 29.9555 10.3476 30.0166 10.368 30.0573C10.368 30.0573 11.4742 27.9942 11.5488 27.9603C11.5895 27.9399 13.259 27.9399 14.7113 27.9467V27.9603C14.7113 27.9603 19.7334 27.9874 20.0863 28.2453C20.5613 28.5914 21.9186 30.5595 21.9186 30.5595C21.939 30.512 21.7965 30.037 21.7965 29.9623Z" fill="white"/>
</g>
<g opacity="0.25">
<path d="M13.3125 27.3563C13.9708 27.3427 14.6766 27.3427 15.2874 27.3359C14.568 27.3359 13.8961 27.3427 13.3125 27.3563Z" fill="#232764"/>
</g>
<g opacity="0.4">
<path d="M13.3125 27.3563C13.9708 27.3427 14.6766 27.3427 15.2874 27.3359C14.568 27.3359 13.8961 27.3427 13.3125 27.3563Z" fill="white"/>
</g>
<g opacity="0.4">
<path d="M6.37033 16.1191C6.37033 16.1191 5.34557 18.888 7.70049 21.2022C10.0554 23.5164 13.1229 24.3512 18.62 24.2222C24.1171 24.0933 26.4041 22.7428 27.4628 20.7475C28.5215 18.7523 27.4628 16.1734 27.4628 16.1734C27.4628 16.1734 28.4672 19.9942 25.0672 21.9895C21.6671 23.9847 15.2064 24.1001 10.7816 22.451C6.35676 20.8018 6.53321 17.2253 6.37033 16.1191Z" fill="white"/>
</g>
<path d="M13.9974 14.0048C14.1388 12.7647 13.7161 11.6981 13.0532 11.6225C12.3903 11.5469 11.7383 12.491 11.5969 13.7311C11.4555 14.9712 11.8782 16.0378 12.5411 16.1134C13.204 16.189 13.856 15.245 13.9974 14.0048Z" fill="white"/>
<path d="M22.8792 14.7041C23.0207 13.4639 22.5979 12.3973 21.935 12.3218C21.2721 12.2462 20.6201 13.1902 20.4787 14.4303C20.3373 15.6705 20.76 16.7371 21.4229 16.8126C22.0858 16.8882 22.7378 15.9442 22.8792 14.7041Z" fill="white"/>
<g opacity="0.4">
<path d="M9.99414 31.5527C9.99414 31.5527 11.2021 34.756 11.8672 34.9528C12.5323 35.1496 20.7236 35.1971 20.7236 35.1971C20.7236 35.1971 21.6602 33.9891 21.918 32.4282C21.918 32.4282 20.4454 34.5252 20.3436 34.5388C20.2418 34.5524 12.1455 34.4302 12.1455 34.4302L9.99414 31.5527Z" fill="white"/>
</g>
<g opacity="0.25">
<path d="M3.60059 28.627C3.60059 28.627 8.05254 36.4586 16.8275 36.4586C25.6025 36.4586 30.1087 29.6381 30.1087 29.6381C30.1087 29.6381 27.6791 37.5987 17.5265 37.5987C7.37389 37.5987 4.36068 31.1312 3.60737 28.7695" fill="white"/>
</g>
<path d="M22.9143 31.1266H22.1813C22.066 31.1266 21.9709 31.0519 21.937 30.9433C21.6452 29.8575 20.9122 28.0455 20.1997 27.808C19.1206 27.4483 11.8658 27.4551 11.2822 27.6926C11.0582 27.869 10.6375 29.2942 10.3864 30.5294C10.3728 30.604 10.3185 30.6719 10.2506 30.7058C10.176 30.7397 10.0945 30.7397 10.0267 30.699L8.58115 29.9321C8.54043 29.9118 8.5065 29.8779 8.47935 29.8371L7.35279 27.8758C6.83701 27.5976 3.55234 25.806 2.43935 24.7676C2.39863 24.7337 2.37149 24.6794 2.3647 24.6251C2.33077 24.4283 1.56389 19.8202 4.35315 14.4996C5.74438 11.8393 7.86856 9.35544 10.3389 7.50272C12.8974 5.58213 15.6188 4.52344 17.9873 4.52344C20.1114 4.52344 22.8396 6.07755 25.2828 8.68357C27.1694 10.6924 28.7167 13.1491 29.7687 15.8026C30.9902 18.8769 31.4992 22.0734 31.2956 25.3037C31.2888 25.3784 31.2549 25.4463 31.1938 25.4938C31.0717 25.582 28.1602 27.6587 24.7602 28.5002C24.638 28.7038 24.3259 29.2128 24.0069 29.715C23.1111 31.1266 23.0839 31.1266 22.9143 31.1266ZM22.3646 30.6244H22.7989C23.0296 30.3122 23.8372 29.0295 24.3802 28.1405C24.4141 28.0862 24.4684 28.0455 24.5362 28.0251C27.5427 27.299 30.2573 25.5073 30.7934 25.1409C31.126 19.3248 28.9339 13.3052 24.9095 9.0229C22.5953 6.55261 19.935 5.02564 17.9805 5.02564C15.7138 5.02564 13.1078 6.0504 10.6307 7.90991C8.22146 9.72191 6.14479 12.1447 4.78749 14.7371C2.28326 19.5216 2.75153 23.8175 2.83976 24.4622C4.04776 25.5345 7.61068 27.4551 7.64461 27.4686C7.68533 27.489 7.71926 27.5229 7.74641 27.5637L8.87297 29.525L9.95202 30.1018C10.142 29.2399 10.5628 27.5637 10.9971 27.2718C11.3772 27.0207 14.2479 27.014 15.4627 27.0207C17.4172 27.0343 19.7246 27.1225 20.349 27.3329C21.4212 27.679 22.161 29.9186 22.3646 30.6244Z" fill="#242568"/>
<path d="M19.8609 34.7977C16.5627 34.7977 12.1379 34.6823 12.0904 34.6755C12.0293 34.6755 11.975 34.6484 11.9275 34.6145C11.8461 34.5398 9.91191 32.7957 9.88477 30.4747C9.88477 30.339 9.99335 30.2236 10.1359 30.2168C10.1359 30.2168 10.1359 30.2168 10.1427 30.2168C10.2784 30.2168 10.3938 30.3254 10.3938 30.4679C10.4209 32.341 11.88 33.8544 12.2058 34.1733C12.9116 34.1937 17.3364 34.3023 20.3971 34.2887C20.655 33.929 21.5372 32.5989 21.9376 30.814C21.9648 30.6783 22.1005 30.5968 22.2362 30.624C22.372 30.6511 22.4534 30.7869 22.4262 30.9226C21.9308 33.1282 20.7703 34.628 20.716 34.6959C20.6685 34.757 20.5939 34.7909 20.5192 34.7909C20.3089 34.7977 20.0849 34.7977 19.8609 34.7977Z" fill="#232562"/>
<path d="M18.0499 23.8092C14.7313 23.8092 10.2861 23.3138 7.95158 20.9589C6.88609 19.8866 6.34996 18.5158 6.36353 16.8938C6.37711 14.8375 6.98111 12.9644 8.16196 11.3288C9.58034 9.36075 11.6977 7.96951 14.1341 7.41302C16.0004 6.98547 18.111 6.50363 21.416 8.05095C23.2552 8.91284 24.9043 10.433 26.058 12.3197C27.2321 14.247 27.8157 16.4459 27.6936 18.5022C27.5782 20.4703 26.3566 21.9294 24.0628 22.832C21.9182 23.6871 19.3801 23.8092 18.0499 23.8092ZM14.2563 7.90844C11.942 8.43778 9.92645 9.76115 8.57594 11.6274C7.45616 13.1816 6.88609 14.9528 6.87252 16.9006C6.85895 18.3868 7.34758 19.6287 8.31805 20.606C10.5305 22.8388 14.8399 23.307 18.0567 23.307C20.1334 23.307 26.9402 22.9609 27.2049 18.475C27.4357 14.4981 24.8636 10.2159 21.2124 8.50565C18.0635 7.03297 16.1225 7.48089 14.2563 7.90844Z" fill="#242568"/>
<path d="M16.7868 37.8589C12.6878 37.8589 9.152 36.4812 6.2338 33.7327C4.34715 31.9546 3.39025 29.5658 2.92877 27.8759C2.41978 26.0503 2.3587 24.6523 2.3587 24.598C2.35191 24.4623 2.4605 24.3401 2.59623 24.3401C2.73196 24.3334 2.85412 24.4419 2.8609 24.5777C2.8609 24.632 3.13236 30.1223 6.57991 33.373C10.5365 37.0988 15.6806 38.2254 21.8564 36.712C27.367 35.3682 30.7874 29.7354 30.7874 25.2835C30.7874 25.1477 30.9028 25.0324 31.0385 25.0324C31.1742 25.0324 31.2896 25.1477 31.2896 25.2835C31.2896 27.6859 30.3666 30.3191 28.7582 32.5111C27.0141 34.8932 24.6049 36.5559 21.9785 37.1938C20.1597 37.6349 18.4292 37.8589 16.7868 37.8589Z" fill="#242568"/>
<path d="M27.245 3.76083C27.3943 3.39436 27.4011 3.02789 27.2518 2.67499C26.9803 2.03706 26.2881 1.62308 25.8945 1.49414C25.3855 1.33126 24.8833 1.61629 24.6797 1.75881C25.5891 2.25422 26.4645 2.90573 27.245 3.76083Z" fill="#3F51A3"/>
<path d="M6.69569 10.7102C6.89928 10.527 7.6458 9.90259 8.89452 9.35289C9.87178 8.92534 11.3037 8.49779 13.1089 8.49779C13.774 8.49779 14.4866 8.55887 15.2467 8.6946C18.6807 9.31217 22.7865 11.3481 25.8947 13.2891C22.6847 9.08143 18.5382 6.94367 15.5928 5.88498C12.3081 4.71091 9.7564 4.58197 9.73605 4.58197C9.70211 4.58197 6.17312 4.38516 5.44697 6.28538C4.75474 8.09738 5.6302 9.7465 6.69569 10.7102Z" fill="#545681"/>
<path d="M24.9242 5.68853C25.121 7.7177 23.5941 9.88938 23.3158 10.2626C24.3474 11.1924 25.3518 12.2715 26.268 13.527C27.7203 14.4567 28.9283 15.3457 29.7019 16.0312C29.953 15.305 31.2221 11.0363 28.684 6.11608C28.2564 5.28813 27.7678 4.58233 27.2249 3.97154C27.2113 3.96476 27.2045 3.95797 27.1977 3.9444C26.3833 3.04179 25.4672 2.36314 24.5103 1.85415C24.4967 1.85415 24.4763 1.84058 24.4628 1.83379C23.4041 1.28408 22.2911 0.93797 21.2256 0.734375C22.2843 1.29766 24.5917 2.83141 24.9242 5.68853Z" fill="white"/>
<path d="M23.2078 10.2546C23.4928 9.86102 24.9655 7.73005 24.7755 5.80268C24.3751 2.3212 20.9614 0.855311 20.6696 0.733154C18.9458 0.482053 17.3782 0.570278 16.3602 0.692436C15.4711 0.80102 14.6364 1.03855 13.8763 1.39823C11.7589 2.40942 10.2795 4.07891 9.89941 4.5336C10.4966 4.58111 12.7973 4.81185 15.6476 5.83662C17.8057 6.60349 20.6017 7.94722 23.2078 10.2546Z" fill="#4052A3"/>
<g opacity="0.25">
<path d="M6.92042 6.39962C5.51562 7.92658 6.81184 9.81323 7.19867 10.3086C7.57872 10.0372 8.142 9.68429 8.8953 9.35175C9.87256 8.9242 11.3045 8.49665 13.1097 8.49665C13.7748 8.49665 14.4874 8.55773 15.2475 8.69346C17.7789 9.14816 20.6835 10.3833 23.2759 11.7745C23.7781 12.0392 24.0496 12.2021 24.0496 12.2021C18.6068 6.3589 8.54919 4.62155 6.92042 6.39962Z" fill="#242568"/>
</g>
<g opacity="0.25">
<path d="M29.4311 10.1619C29.4311 10.1619 28.9221 10.5284 27.3612 9.83615C25.8071 9.14392 24.9384 7.00617 24.9384 7.00617C24.9112 6.98581 24.8705 7.0401 24.8094 7.14869C24.4633 8.66208 23.5268 9.98545 23.3164 10.2705C24.348 11.2002 25.3524 12.2793 26.2685 13.5348C27.4494 14.2881 28.4674 15.0143 29.2207 15.6318C30.0961 13.0462 29.4311 10.1619 29.4311 10.1619Z" fill="white"/>
</g>
<g opacity="0.25">
<path d="M27.062 3.04396C26.967 2.75214 26.3155 2.28387 25.9287 2.121C25.63 1.99884 25.3654 2.05992 25.25 2.10064C25.8811 2.50104 26.4919 2.9761 27.0552 3.55974C27.0891 3.46473 27.1299 3.26113 27.062 3.04396Z" fill="#232764"/>
</g>
<g opacity="0.4">
<path d="M7.40276 5.27419C9.60838 4.53446 17.6097 6.14965 21.7698 9.1968C19.5846 7.55446 17.3721 6.52291 15.5941 5.88498C12.3094 4.71091 9.75768 4.58197 9.73732 4.58197C9.70339 4.58197 6.1744 4.38516 5.44824 6.28538C5.06141 7.29657 5.16321 8.25347 5.51611 9.07464C5.4686 8.30098 5.49575 5.91891 7.40276 5.27419Z" fill="white"/>
</g>
<g opacity="0.4">
<path d="M27.8153 5.48494C29.0301 7.32408 29.7291 9.17001 30.0277 10.0658C29.8105 8.84426 29.3966 7.50732 28.684 6.11608C28.2564 5.28813 27.7678 4.58233 27.2249 3.97154C27.2113 3.96476 27.2045 3.95797 27.1977 3.9444C26.3833 3.04179 25.4672 2.36314 24.5103 1.85415C24.4967 1.85415 24.4763 1.84058 24.4628 1.83379C23.4041 1.28408 22.2911 0.93797 21.2256 0.734375C21.5853 0.924397 22.0875 1.223 22.6032 1.65055C23.0851 1.83379 26.2476 3.10966 27.8153 5.48494Z" fill="white"/>
</g>
<path d="M29.7357 16.4178C29.6746 16.4178 29.6135 16.3975 29.566 16.35C27.6455 14.6058 20.7775 10.0249 15.1854 9.01375C12.4504 8.51834 10.3398 9.08162 9.04362 9.63811C7.63881 10.2421 6.87193 10.9818 6.86515 10.9886C6.77013 11.0769 6.62083 11.0836 6.52582 10.9954C5.35175 9.97065 4.36771 8.15865 5.1278 6.16342C5.86074 4.23605 8.92825 4.21569 9.62047 4.24284C9.98694 3.80171 11.4935 2.07115 13.7263 0.998881C14.5135 0.618836 15.3822 0.374521 16.312 0.265937C18.0697 0.0555549 20.7096 0.00804909 23.2953 0.958161C25.8402 1.8947 27.754 3.57776 28.9756 5.95982C30.4551 8.83731 30.6519 11.4773 30.5501 13.1875C30.4415 15.047 29.9868 16.2075 29.9664 16.255C29.9393 16.3296 29.8714 16.3907 29.79 16.4043C29.7764 16.4178 29.7561 16.4178 29.7357 16.4178ZM13.1087 8.32832C13.7806 8.32832 14.5068 8.3894 15.2736 8.52513C20.3907 9.44809 27.0007 13.4996 29.6135 15.7256C29.7561 15.2573 29.98 14.3412 30.0479 13.1332C30.1429 11.4908 29.9529 8.95268 28.5277 6.18378C25.5213 0.340588 19.0266 0.442386 16.3731 0.761353C15.4976 0.86315 14.6832 1.10068 13.9435 1.45358C11.5275 2.61407 9.95301 4.63645 9.93265 4.65681C9.88515 4.72468 9.80371 4.75861 9.71548 4.75182C9.68155 4.75182 6.27472 4.5618 5.59607 6.34665C4.95814 8.00935 5.71822 9.53632 6.69548 10.4729C7.00766 10.2082 7.72703 9.66526 8.82645 9.1902C9.82407 8.76265 11.2764 8.32832 13.1087 8.32832Z" fill="#242568"/>
<path d="M26.2271 13.8523C26.1524 13.8523 26.071 13.8184 26.0235 13.7505C22.8067 9.33926 18.5515 7.13364 15.5519 6.05459C12.2876 4.88052 9.75619 4.75836 9.72904 4.75836C9.59331 4.75158 9.48473 4.63621 9.49151 4.49369C9.4983 4.35796 9.61367 4.24937 9.75619 4.25616C9.86477 4.26295 12.3758 4.3851 15.708 5.57953C18.7823 6.67895 23.1392 8.93886 26.4374 13.4587C26.5189 13.574 26.4917 13.7301 26.3831 13.8116C26.3289 13.8387 26.2746 13.8523 26.2271 13.8523Z" fill="#242568"/>
<path d="M23.2144 10.5217C23.1601 10.5217 23.1059 10.5013 23.0583 10.4674C22.9498 10.386 22.9294 10.2231 23.0108 10.1145C23.0312 10.0941 24.7957 7.76637 24.5921 5.72363C24.1849 2.22179 20.6152 0.803407 20.5813 0.789834C20.4523 0.742329 20.3845 0.593025 20.4388 0.464081C20.4863 0.335138 20.6356 0.267273 20.7645 0.321565C20.8052 0.335138 21.7485 0.70161 22.7597 1.54314C24.1035 2.66291 24.9111 4.08808 25.0943 5.66934C25.3183 7.92246 23.4859 10.3249 23.4112 10.4267C23.3637 10.4878 23.2891 10.5217 23.2144 10.5217Z" fill="#242568"/>
<path d="M27.266 4.16011C27.2321 4.16011 27.1913 4.15332 27.1574 4.13296C27.0353 4.07188 26.981 3.92258 27.042 3.79364C27.2185 3.43395 27.2388 3.08105 27.0895 2.74173C26.8384 2.15809 26.2073 1.77804 25.8408 1.66267C25.2775 1.48622 24.6939 1.96807 24.6871 1.96807C24.5785 2.05629 24.4224 2.0495 24.3342 1.94092C24.246 1.83233 24.2528 1.67624 24.3614 1.58802C24.3953 1.56087 25.1554 0.916155 25.9969 1.18083C26.5398 1.35049 27.266 1.85269 27.5578 2.54492C27.7614 3.01998 27.741 3.52896 27.4967 4.01759C27.4492 4.10582 27.361 4.16011 27.266 4.16011Z" fill="#242568"/>
<path d="M16.0279 15.4908L17.7449 15.5994C18.0028 15.6129 18.1724 15.8844 18.0774 16.1219C17.8874 16.5902 17.4938 17.2146 16.7812 17.1806C16.0618 17.1467 15.7632 16.4613 15.6343 15.9591C15.5664 15.7147 15.77 15.4772 16.0279 15.4908Z" fill="white"/>
<path opacity="0.22" d="M17.9695 14.4598C18.3185 11.3986 16.292 8.65363 13.4431 8.32876C10.5941 8.0039 8.00162 10.2221 7.65255 13.2834C7.30348 16.3446 9.33003 19.0895 12.179 19.4144C15.0279 19.7393 17.6204 17.521 17.9695 14.4598Z" fill="#F1F2F2"/>
<path opacity="0.22" d="M26.8347 14.9559C27.1838 11.8947 25.1572 9.14972 22.3083 8.82486C19.4594 8.49999 16.8669 10.7182 16.5178 13.7795C16.1687 16.8407 18.1953 19.5856 21.0442 19.9105C23.8931 20.2353 26.4856 18.0171 26.8347 14.9559Z" fill="#F1F2F2"/>
<path d="M21.2127 18.3145H11.1619C10.11 18.3145 9.25488 19.1696 9.25488 20.2215V32.6069C9.25488 33.6588 10.11 34.5139 11.1619 34.5139H21.2127C22.2646 34.5139 23.1197 33.6588 23.1197 32.6069V20.2283C23.1265 19.1763 22.2646 18.3145 21.2127 18.3145Z" fill="white"/>
<g opacity="0.25">
<path d="M21.1039 30.527C20.5881 31.6265 19.2715 31.6265 19.2715 31.6265H16.1904H13.1093C13.1093 31.6265 11.7996 31.6265 11.277 30.527C10.7612 29.4276 10.5644 25.2336 10.0215 23.7812V32.6037C10.0215 32.6037 10.3472 33.7914 11.148 33.7914C11.9489 33.7914 16.1904 33.7914 16.1904 33.7914C16.1904 33.7914 20.432 33.7914 21.2328 33.7914C22.0336 33.7914 22.3594 32.6037 22.3594 32.6037V23.788C21.8164 25.2336 21.6196 29.4276 21.1039 30.527Z" fill="#242568"/>
</g>
<g opacity="0.4">
<path d="M21.2118 18.3145H16.1898H11.1678C10.1158 18.3145 9.26074 19.1696 9.26074 20.2215V25.0263L9.43041 24.7684C9.43041 24.7684 9.95975 19.9839 9.95975 19.9093C9.95975 19.8346 10.5434 18.9252 11.4731 18.9252C12.4029 18.9252 16.1898 18.9252 16.1898 18.9252C16.1898 18.9252 19.9767 18.9252 20.9064 18.9252C21.8362 18.9252 22.4198 19.8346 22.4198 19.9093C22.4198 19.9839 22.9491 24.7684 22.9491 24.7684L23.1188 25.0263V20.2215C23.1256 19.1763 22.2637 18.3145 21.2118 18.3145Z" fill="white"/>
</g>
<path d="M15.9523 20.6397H17.4385C17.4385 20.6397 17.676 20.219 17.486 20.0629C17.296 19.9068 16.9024 19.8729 16.8277 19.8389C16.7531 19.805 16.5834 19.2892 16.2712 19.2621C15.9523 19.2349 15.8369 19.3028 15.7962 19.3503C15.7555 19.3978 15.6469 19.7168 15.6469 19.7168C15.6469 19.7168 15.1515 19.8593 15.0836 19.9C15.0157 19.9407 14.8732 20.2868 14.8936 20.314C14.9071 20.3411 14.9547 20.4633 15.0022 20.504C15.0497 20.5447 15.294 20.6329 15.294 20.6329H15.9523V20.6397Z" fill="#545681"/>
<path d="M21.2122 34.8517H11.1614C9.92623 34.8517 8.91504 33.8473 8.91504 32.6054V20.2268C8.91504 18.9917 9.91944 17.9805 11.1614 17.9805H21.2122C22.4474 17.9805 23.4585 18.9849 23.4585 20.2268V32.6122C23.4585 33.8473 22.4541 34.8517 21.2122 34.8517ZM11.1614 18.4827C10.1977 18.4827 9.41724 19.2631 9.41724 20.2268V32.6122C9.41724 33.5759 10.1977 34.3563 11.1614 34.3563H21.2122C22.1759 34.3563 22.9563 33.5759 22.9563 32.6122V20.2268C22.9563 19.2631 22.1759 18.4827 21.2122 18.4827H11.1614Z" fill="#242568"/>
<path d="M17.0789 20.891H15.2941C14.9344 20.891 14.6426 20.5992 14.6426 20.2395C14.6426 19.8798 14.9344 19.588 15.2941 19.588H15.4095C15.4705 19.2147 15.7963 18.9297 16.1899 18.9297C16.5835 18.9297 16.9025 19.2147 16.9704 19.588H17.0857C17.4454 19.588 17.7372 19.8798 17.7372 20.2395C17.7372 20.5992 17.4386 20.891 17.0789 20.891ZM15.2941 20.0902C15.2126 20.0902 15.1448 20.158 15.1448 20.2395C15.1448 20.3209 15.2126 20.3888 15.2941 20.3888H17.0789C17.1604 20.3888 17.2282 20.3209 17.2282 20.2395C17.2282 20.158 17.1604 20.0902 17.0789 20.0902H16.7125C16.6378 20.0902 16.5632 20.0562 16.5157 19.9952C16.4682 19.9341 16.4478 19.8594 16.4682 19.7848C16.4749 19.7644 16.4749 19.7441 16.4749 19.7237C16.4749 19.5676 16.346 19.4387 16.1899 19.4387C16.0338 19.4387 15.9049 19.5676 15.9049 19.7237C15.9049 19.7441 15.9049 19.7644 15.9117 19.7848C15.9252 19.8594 15.9117 19.9341 15.8642 19.9952C15.8166 20.0562 15.742 20.0902 15.6673 20.0902H15.2941Z" fill="#242568"/>
<path d="M2.77253 23.0415C2.48749 22.5529 2.39927 22.0439 2.36534 21.7656C1.70026 22.6004 1.40165 23.4758 1.30664 24.2834C1.5781 23.9441 2.12102 23.3469 2.77253 23.0415Z" fill="url(#paint0_linear_1949_3931)"/>
<path d="M8.41373 26.6319C8.23049 27.5074 8.09476 29.0615 8.90914 30.5206C9.59458 30.7852 10.1375 30.7242 10.5243 30.3305C11.1691 29.6723 11.2301 28.1792 10.8501 27.2902C10.375 26.1636 8.71912 26.5505 8.41373 26.6319Z" fill="#545681"/>
<path d="M8.25595 26.5646C8.25595 26.5511 8.25595 26.5375 8.26273 26.5307C8.32381 26.2525 8.38489 26.0489 8.41883 25.9471C7.27869 25.4788 6.35572 24.7119 5.74494 24.2097C5.39204 23.9179 5.107 23.6872 4.96449 23.6532C4.5573 23.5582 3.84471 23.9586 3.79721 23.9858C3.71577 24.0468 1.88341 25.4856 1.78161 27.3994V27.4062C1.78161 27.4062 1.78161 27.4062 1.78161 27.4129C1.63231 28.2205 2.11415 29.8018 2.12094 29.8154C2.12772 29.8222 2.72494 31.227 5.10022 31.227C5.13415 31.227 5.16808 31.227 5.20202 31.227C7.33977 31.193 8.45954 30.7044 8.73779 30.5619C7.91662 29.0417 8.06593 27.4469 8.25595 26.5646Z" fill="white"/>
<path d="M3.60793 23.9146C3.28217 23.711 3.04465 23.4531 2.86141 23.1816C2.0606 23.5549 1.40231 24.4236 1.27337 24.5932C1.2055 25.6791 1.47696 26.5953 1.64662 27.05C1.89773 25.428 3.22788 24.2268 3.60793 23.9146Z" fill="#3F51A3"/>
<g opacity="0.25">
<path d="M11.073 28.871C11.1069 28.4027 11.0594 27.9141 10.9305 27.5069L10.8423 27.3848C10.7133 27.9752 8.89453 29.285 8.3584 28.966C8.43984 29.4275 8.58914 29.9026 8.83345 30.3708C10.3604 30.4794 10.9237 29.4547 11.073 28.871Z" fill="#232764"/>
</g>
<g opacity="0.25">
<path d="M1.2802 24.5946C1.21234 25.6804 1.4838 26.5966 1.65346 27.0513C1.76204 26.3252 2.0878 25.6872 2.44748 25.1782C2.20995 24.7032 2.08101 24.2146 2.01993 23.7734C1.6331 24.1195 1.35485 24.486 1.2802 24.5946Z" fill="#3F51A3"/>
</g>
<g opacity="0.25">
<path d="M2.01239 22.2617C1.58484 22.9404 1.38124 23.6326 1.2998 24.2841C1.45589 24.0941 1.69342 23.8226 1.99203 23.5647C1.93774 22.9811 1.98524 22.4925 2.01239 22.2617Z" fill="#242568"/>
</g>
<g opacity="0.25">
<path d="M5.19621 30.8245C6.9607 30.7702 8.18906 30.1662 8.48088 30.0101C8.26371 29.4536 8.15513 28.9039 8.12119 28.3949C8.02618 27.7502 8.18227 26.9766 8.18227 26.9766C8.18227 26.9766 7.18466 28.4832 5.24371 28.8089C3.51315 29.1007 2.04048 28.0353 1.78938 27.3023C1.78938 27.3363 1.78259 27.3634 1.78259 27.3973V27.4041C1.78259 27.4041 1.78259 27.4041 1.78259 27.4109C1.63329 28.2185 2.11513 29.7998 2.12192 29.8133C2.12192 29.8133 2.25086 30.1051 2.60376 30.4173C3.01773 30.6006 3.86605 30.8652 5.19621 30.8245Z" fill="white"/>
</g>
<g opacity="0.4">
<path d="M4.64046 24.2145C4.88477 24.2688 6.66963 25.7754 8.33232 26.2505C8.36626 26.1148 8.40019 26.013 8.42055 25.9451C7.28041 25.4768 6.35745 24.71 5.74666 24.2078C5.39376 23.9159 5.10873 23.6852 4.96621 23.6513C4.55902 23.5563 3.84644 23.9567 3.79893 23.9838C3.77179 24.0042 3.52747 24.1942 3.22208 24.5132L2.74023 25.1239C2.74702 25.1172 4.39614 24.1535 4.64046 24.2145Z" fill="white"/>
</g>
<g opacity="0.4">
<path d="M2.77382 23.0415C2.48879 22.5529 2.40056 22.0439 2.36663 21.7656C2.29198 21.8606 2.22412 21.9489 2.15625 22.0439C2.17661 22.2882 2.24447 22.7497 2.45486 23.2179C2.55665 23.1501 2.66524 23.0958 2.77382 23.0415Z" fill="white"/>
</g>
<g opacity="0.4">
<path d="M10.6657 26.984C10.0414 26.2443 8.69084 26.5564 8.41938 26.6311C8.39223 26.7668 8.36509 26.9161 8.34473 27.079C8.63655 27.0043 9.95313 26.7057 10.6657 26.984Z" fill="white"/>
</g>
<g opacity="0.4">
<path d="M8.46082 26.4491C8.46082 26.4414 8.46082 26.4414 8.46082 26.4491C8.45316 26.4414 8.45316 26.4414 8.46082 26.4491Z" fill="white"/>
</g>
<g opacity="0.4">
<path d="M2.86184 23.1816C2.74646 23.2359 2.63788 23.297 2.5293 23.3717C2.69217 23.6906 2.9297 23.996 3.26903 24.22C3.41154 24.0842 3.52691 23.9824 3.60835 23.9146C3.2826 23.711 3.04507 23.4531 2.86184 23.1816Z" fill="white"/>
</g>
<path d="M1.7008 27.6342C1.60579 27.6342 1.51756 27.5799 1.47684 27.4985C1.45648 27.4646 1.06286 26.657 0.95428 25.4965C0.852482 24.4242 0.994999 22.8362 2.2505 21.3839C2.31837 21.3024 2.42695 21.2753 2.52875 21.3092C2.62376 21.3431 2.69163 21.4382 2.69163 21.5467C2.69163 21.5603 2.71199 23.033 3.87927 23.6845C3.95392 23.7252 4.00143 23.7999 4.00821 23.8881C4.015 23.9695 3.97428 24.0577 3.90641 24.1053C3.88605 24.1188 2.0537 25.5304 1.9519 27.3967C1.94511 27.5121 1.86367 27.6071 1.75509 27.6275C1.73473 27.6342 1.71437 27.6342 1.7008 27.6342ZM2.26408 22.1847C1.61257 23.1348 1.34111 24.2206 1.4497 25.4354C1.48363 25.8087 1.55149 26.148 1.62614 26.4262C2.00619 25.2318 2.88165 24.336 3.32956 23.9356C2.6577 23.4266 2.37945 22.7004 2.26408 22.1847Z" fill="#242568"/>
<path d="M1.18511 24.8257C1.1376 24.8257 1.08331 24.8121 1.04259 24.7782C0.927222 24.6968 0.900076 24.5407 0.981514 24.4321C1.01545 24.3846 1.78911 23.2716 2.79351 22.844C2.92246 22.7898 3.07176 22.8508 3.12605 22.9798C3.18035 23.1087 3.11927 23.258 2.99032 23.3123C2.12165 23.6856 1.40228 24.7103 1.39549 24.7239C1.34799 24.7918 1.26655 24.8257 1.18511 24.8257Z" fill="#242568"/>
<path d="M5.09361 31.5502C2.49437 31.5502 1.83608 29.9893 1.80893 29.9214C1.80893 29.9146 1.80214 29.9078 1.80214 29.9011C1.78179 29.8332 1.29316 28.2248 1.45603 27.3425C1.48318 27.2068 1.61212 27.1186 1.74785 27.1389C1.88358 27.1661 1.97181 27.295 1.95145 27.4308C1.8225 28.1637 2.23648 29.5889 2.2772 29.745C2.33149 29.8671 2.92192 31.048 5.09361 31.048C5.12754 31.048 5.16147 31.048 5.1954 31.048C7.02098 31.014 8.08646 30.6544 8.50722 30.4711C7.57068 28.598 8.01181 26.691 8.2154 26.0327C7.12277 25.5509 6.24053 24.818 5.64331 24.3293C5.35828 24.0986 5.03931 23.8271 4.93073 23.8068C4.67284 23.7457 4.15028 23.9696 3.88561 24.1257C3.76345 24.1936 3.61414 24.1529 3.53949 24.0375C3.47163 23.9153 3.51235 23.766 3.62772 23.6914C3.71594 23.6371 4.50996 23.1892 5.0461 23.3181C5.27005 23.3724 5.5483 23.5964 5.96228 23.9425C6.61378 24.4786 7.49603 25.2116 8.62259 25.6595C8.75154 25.7138 8.81261 25.8563 8.76511 25.9852C8.75832 26.0056 7.87608 28.3469 9.0705 30.4575C9.13837 30.5729 9.09765 30.729 8.98228 30.7969C8.93477 30.824 7.79464 31.5027 5.20219 31.5434C5.16826 31.5502 5.12754 31.5502 5.09361 31.5502Z" fill="#242568"/>
<path d="M9.67448 31.0135C9.41659 31.0135 9.1112 30.9592 8.7583 30.8167C8.62936 30.7624 8.56828 30.6199 8.61578 30.491C8.67008 30.362 8.81259 30.3009 8.94154 30.3485C9.57268 30.5996 10.0613 30.552 10.4006 30.2059C10.9911 29.6019 11.0454 28.1768 10.6925 27.3488C10.2242 26.2562 8.42576 26.7923 8.41219 26.7923C8.27646 26.833 8.14073 26.7584 8.10001 26.6227C8.05929 26.4869 8.13394 26.3512 8.26288 26.3105C8.35111 26.2833 10.5092 25.6386 11.1539 27.1452C11.5747 28.136 11.5204 29.7784 10.7603 30.552C10.5364 30.7896 10.1903 31.0135 9.67448 31.0135Z" fill="#242568"/>
<path d="M30.7471 23.0415C31.0321 22.5529 31.1203 22.0439 31.1543 21.7656C31.8193 22.6004 32.1179 23.4758 32.213 24.2834C31.9483 23.9441 31.3986 23.3469 30.7471 23.0415Z" fill="url(#paint1_linear_1949_3931)"/>
<path d="M25.1081 26.6319C25.2913 27.5074 25.4271 29.0615 24.6127 30.5206C23.9273 30.7852 23.3843 30.7242 22.9975 30.3305C22.3528 29.6723 22.2917 28.1792 22.6717 27.2902C23.1536 26.1636 24.8027 26.5505 25.1081 26.6319Z" fill="#545681"/>
<path d="M25.2631 26.5646C25.2631 26.5511 25.2631 26.5375 25.2563 26.5307C25.1952 26.2525 25.1341 26.0489 25.1002 25.9471C26.2403 25.4788 27.1633 24.7119 27.7741 24.2097C28.127 23.9179 28.412 23.6872 28.5546 23.6532C28.9617 23.5582 29.6743 23.9586 29.7218 23.9858C29.8033 24.0468 31.6356 25.4856 31.7374 27.3994V27.4062C31.7374 27.4062 31.7374 27.4062 31.7374 27.4129C31.8867 28.2205 31.4049 29.8018 31.3981 29.8154C31.3913 29.8222 30.7941 31.227 28.4188 31.227C28.3849 31.227 28.351 31.227 28.317 31.227C26.1793 31.193 25.0595 30.7044 24.7812 30.5619C25.6092 29.0417 25.4531 27.4469 25.2631 26.5646Z" fill="white"/>
<path d="M29.918 23.9146C30.2437 23.711 30.4812 23.4531 30.6645 23.1816C31.4653 23.5549 32.1236 24.4236 32.2525 24.5932C32.3204 25.6791 32.0489 26.5953 31.8793 27.05C31.6282 25.428 30.2912 24.2268 29.918 23.9146Z" fill="#3F51A3"/>
<g opacity="0.25">
<path d="M22.4471 28.871C22.4132 28.4027 22.4607 27.9141 22.5896 27.5069L22.6779 27.3848C22.8068 27.9752 24.6256 29.285 25.1617 28.966C25.0803 29.4275 24.931 29.9026 24.6867 30.3708C23.1597 30.4794 22.6032 29.4547 22.4471 28.871Z" fill="#232764"/>
</g>
<g opacity="0.25">
<path d="M32.2464 24.5946C32.3142 25.6804 32.0428 26.5966 31.8731 27.0513C31.7645 26.3252 31.4388 25.6872 31.0791 25.1782C31.3166 24.7032 31.4456 24.2146 31.5067 23.7734C31.8935 24.1195 32.1717 24.486 32.2464 24.5946Z" fill="#3F51A3"/>
</g>
<g opacity="0.25">
<path d="M31.5068 22.2617C31.9344 22.9404 32.138 23.6326 32.2194 24.2841C32.0633 24.0941 31.8258 23.8226 31.5272 23.5647C31.5883 22.9811 31.5408 22.4925 31.5068 22.2617Z" fill="#242568"/>
</g>
<g opacity="0.25">
<path d="M28.3247 30.8245C26.5602 30.7702 25.3319 30.1662 25.04 30.0101C25.2572 29.4536 25.3658 28.9039 25.3997 28.3949C25.4947 27.7502 25.3386 26.9766 25.3386 26.9766C25.3386 26.9766 26.3363 28.4832 28.2772 28.8089C30.0078 29.1007 31.4804 28.0353 31.7315 27.3023C31.7315 27.3363 31.7383 27.3634 31.7383 27.3973V27.4041C31.7383 27.4041 31.7383 27.4041 31.7383 27.4109C31.8876 28.2185 31.4058 29.7998 31.399 29.8133C31.399 29.8133 31.2701 30.1051 30.9172 30.4173C30.5032 30.6006 29.6617 30.8652 28.3247 30.8245Z" fill="white"/>
</g>
<g opacity="0.4">
<path d="M28.8817 24.2145C28.6373 24.2688 26.8525 25.7754 25.1898 26.2505C25.1559 26.1148 25.1219 26.013 25.1016 25.9451C26.2417 25.4768 27.1647 24.71 27.7754 24.2078C28.1283 23.9159 28.4134 23.6852 28.5559 23.6513C28.9631 23.5563 29.6757 23.9567 29.7232 23.9838C29.7503 24.0042 29.9946 24.1942 30.3 24.5132L30.7819 25.1239C30.7819 25.1172 29.126 24.1535 28.8817 24.2145Z" fill="white"/>
</g>
<g opacity="0.4">
<path d="M30.7471 23.0415C31.0321 22.5529 31.1203 22.0439 31.1543 21.7656C31.2289 21.8606 31.2968 21.9489 31.3646 22.0439C31.3443 22.2882 31.2764 22.7497 31.066 23.2179C30.9642 23.1501 30.8624 23.0958 30.7471 23.0415Z" fill="white"/>
</g>
<g opacity="0.4">
<path d="M22.8613 26.984C23.4857 26.2443 24.8362 26.5564 25.1077 26.6311C25.1348 26.7668 25.162 26.9161 25.1823 27.079C24.8905 27.0043 23.5739 26.7057 22.8613 26.984Z" fill="white"/>
</g>
<g opacity="0.4">
<path d="M30.6576 23.1816C30.773 23.2359 30.8816 23.297 30.9902 23.3717C30.8273 23.6906 30.5898 23.996 30.2505 24.22C30.1079 24.0842 29.9926 23.9824 29.9111 23.9146C30.2437 23.711 30.4812 23.4531 30.6576 23.1816Z" fill="#3F51A3"/>
</g>
<path d="M31.825 27.6344C31.8046 27.6344 31.7911 27.6344 31.7707 27.6276C31.6621 27.6073 31.5739 27.5122 31.5739 27.3969C31.4721 25.5306 29.6397 24.119 29.6194 24.1054C29.5515 24.0511 29.5176 23.9697 29.5176 23.8882C29.5244 23.8068 29.5719 23.7254 29.6465 23.6846C30.8138 23.0331 30.8342 21.5605 30.8342 21.5469C30.8342 21.4451 30.902 21.3501 30.997 21.3094C31.092 21.2754 31.2074 21.3026 31.2753 21.3772C32.5308 22.8295 32.6733 24.4108 32.5715 25.4899C32.4629 26.6504 32.0625 27.4579 32.0489 27.4919C32.0014 27.5869 31.9132 27.6344 31.825 27.6344ZM30.1894 23.929C30.6374 24.3294 31.5128 25.232 31.8929 26.4196C31.9675 26.1414 32.0354 25.802 32.0693 25.4288C32.1779 24.2208 31.9064 23.1282 31.2549 22.178C31.1463 22.7006 30.8681 23.4268 30.1894 23.929Z" fill="#242568"/>
<path d="M32.3348 24.8247C32.2534 24.8247 32.1788 24.784 32.1313 24.7161C32.1177 24.7025 31.3983 23.6778 30.5364 23.3045C30.4075 23.2502 30.3464 23.1009 30.4007 22.972C30.455 22.843 30.6043 22.7819 30.7332 22.8362C31.7376 23.2638 32.5113 24.3768 32.5452 24.4243C32.6267 24.5397 32.5927 24.6957 32.4842 24.7704C32.4366 24.8111 32.3891 24.8247 32.3348 24.8247Z" fill="#242568"/>
<path d="M28.4336 31.5492C28.3997 31.5492 28.359 31.5492 28.3182 31.5492C25.7326 31.5085 24.5857 30.8299 24.5381 30.8027C24.4228 30.7349 24.3821 30.5856 24.4499 30.4634C25.6511 28.3528 24.7689 26.0114 24.7553 25.9911C24.7078 25.8621 24.7689 25.7196 24.8978 25.6653C26.0244 25.2174 26.9066 24.4845 27.5581 23.9484C27.9789 23.6022 28.2504 23.3715 28.4743 23.324C29.0105 23.195 29.8045 23.643 29.8927 23.6972C30.0149 23.7651 30.0556 23.9212 29.9809 24.0434C29.9131 24.1655 29.757 24.2062 29.6348 24.1316C29.3701 23.9755 28.8476 23.7515 28.5897 23.8126C28.4811 23.8398 28.1554 24.1044 27.8771 24.3352C27.2799 24.8306 26.3977 25.5568 25.305 26.0386C25.5086 26.6901 25.9497 28.6039 25.0132 30.477C25.434 30.6602 26.4995 31.0199 28.325 31.0538C30.5781 31.0946 31.1889 29.8798 31.25 29.7508C31.2975 29.6015 31.7115 28.1696 31.5758 27.4366C31.5486 27.3009 31.6436 27.1719 31.7794 27.1448C31.9151 27.1177 32.044 27.2127 32.0712 27.3484C32.2341 28.2374 31.7454 29.839 31.7251 29.9069C31.7251 29.9137 31.7183 29.9205 31.7183 29.9273C31.6911 29.9883 31.0261 31.5492 28.4336 31.5492Z" fill="#242568"/>
<path d="M23.8519 31.0146C23.3361 31.0146 22.9832 30.7906 22.7593 30.5599C21.9992 29.7862 21.9449 28.1439 22.3657 27.153C23.0104 25.6464 25.1685 26.2911 25.2567 26.3183C25.3924 26.359 25.4671 26.5015 25.4196 26.6305C25.3789 26.7662 25.2364 26.8341 25.1074 26.8001C25.087 26.7933 23.2886 26.264 22.8271 27.3566C22.4742 28.1846 22.5285 29.6097 23.119 30.2137C23.4583 30.5599 23.9469 30.6074 24.5781 30.3563C24.707 30.302 24.8563 30.3698 24.9038 30.4988C24.9581 30.6277 24.8902 30.777 24.7613 30.8245C24.4152 30.9603 24.1098 31.0146 23.8519 31.0146Z" fill="#242568"/>
<path d="M12.8517 23.4199C13.7504 23.9367 14.6041 24.431 15.4579 24.914C15.7163 25.06 15.9746 25.3072 16.233 25.3072C16.4802 25.3072 16.7273 25.0713 16.9745 24.9252C17.772 24.4759 18.5696 24.0153 19.356 23.5547C19.4234 23.521 19.4908 23.4873 19.5807 23.4312C19.5807 24.4647 19.5807 25.4645 19.5807 26.5317C19.3785 26.2958 19.165 26.116 18.9067 25.9924C18.8392 25.9587 18.8729 25.8689 18.8729 25.8015C18.8729 25.4308 18.8729 25.06 18.8729 24.6556C18.5135 24.8578 18.1877 25.0488 17.8619 25.2286C17.3789 25.5094 16.8846 25.779 16.4015 26.0711C16.278 26.1497 16.1769 26.1497 16.0533 26.0711C15.2445 25.5993 14.4356 25.1387 13.6268 24.6781C13.5482 24.723 13.5819 24.7904 13.5819 24.8466C13.5819 25.7228 13.5706 26.5991 13.5706 27.4641C13.5706 28.1381 14.0537 28.4526 14.6715 28.1606C14.8513 28.0819 15.0198 27.9696 15.1883 27.8572C15.2894 27.7898 15.3568 27.7786 15.4579 27.8685C15.6039 27.992 15.7612 28.1044 15.9297 28.2392C15.4017 28.6211 14.885 29.0031 14.1997 28.9919C13.4808 28.9806 12.8629 28.4189 12.8517 27.7112C12.8404 26.307 12.8517 24.8915 12.8517 23.4199Z" fill="#2A2E32"/>
<path d="M13.8964 26.9914C13.8964 26.7779 13.9077 26.587 13.8964 26.4072C13.8852 26.2275 13.9751 26.1938 14.1324 26.1825C14.4918 26.1601 14.8064 26.2724 15.1209 26.4409C15.8062 26.7892 16.3903 27.3059 17.0307 27.7328C17.3227 27.9238 17.6036 28.1147 17.9294 28.2383C18.3338 28.3844 18.7382 28.1821 18.8618 27.7777C18.9629 27.4295 18.7157 27.0251 18.3225 26.9352C18.1091 26.8903 17.9181 26.9689 17.7271 27.0588C17.671 27.0812 17.6148 27.1149 17.5699 27.1486C17.0644 27.452 17.0307 27.4407 16.615 27.0475C16.5476 26.9801 16.5364 26.9464 16.615 26.8903C17.0194 26.6094 17.4238 26.3286 17.9181 26.2275C18.536 26.1151 19.064 26.3398 19.3897 26.8453C19.7043 27.3396 19.6706 28.0024 19.3111 28.4742C18.9516 28.946 18.3899 29.1258 17.7833 28.9573C17.2104 28.8 16.761 28.4405 16.2892 28.0923C15.8286 27.7553 15.3681 27.4295 14.8738 27.1374C14.4918 26.9015 14.3346 26.879 13.8964 26.9914Z" fill="#4052A3"/>
<defs>
<linearGradient id="paint0_linear_1949_3931" x1="1.30469" y1="23.0245" x2="2.77378" y2="23.0245" gradientUnits="userSpaceOnUse">
<stop stop-color="white"/>
<stop offset="1" stop-color="#B5B9DD"/>
</linearGradient>
<linearGradient id="paint1_linear_1949_3931" x1="32.2185" y1="23.0245" x2="30.7494" y2="23.0245" gradientUnits="userSpaceOnUse">
<stop stop-color="white"/>
<stop offset="1" stop-color="#B5B9DD"/>
</linearGradient>
</defs>
</svg>
