<svg width="36" height="38" viewBox="0 0 36 38" fill="none" xmlns="http://www.w3.org/2000/svg">
<path d="M28.4551 12.8335C28.4467 13.6007 28.4431 14.3679 28.4299 15.1352C28.3903 17.3251 26.7142 19.0336 24.5171 19.0876C23.0115 19.1249 21.5035 19.1153 19.9967 19.1261C17.4069 19.1261 14.8159 19.1261 12.2262 19.1261C10.801 19.1153 9.37465 19.1069 7.9495 19.0936C5.46899 19.0696 3.7809 17.3695 3.76409 14.8878C3.75928 14.2023 3.74248 13.5179 3.73047 12.8335C3.73047 10.1285 3.73047 7.42467 3.73047 4.71964C4.00902 2.01821 5.53622 0.629079 8.23645 0.626677C13.5132 0.623075 18.7912 0.665098 24.0668 0.603865C26.6338 0.573849 28.466 2.48046 28.4576 4.71484C28.4576 7.42107 28.4563 10.1273 28.4551 12.8335ZM16.067 15.8123C16.067 15.8159 16.067 15.8183 16.067 15.8219C16.809 15.8219 17.551 15.8375 18.2918 15.8183C19.6425 15.7835 20.6126 14.9575 20.9044 13.6368C21.0076 13.1709 21.0364 12.6991 20.4733 12.567C19.8898 12.4289 19.8406 12.9596 19.7289 13.3414C19.4408 14.3199 19.059 14.6393 18.024 14.6561C16.7886 14.6765 15.5519 14.6717 14.3165 14.6669C13.087 14.6609 12.7268 14.3872 12.4087 13.1829C12.3054 12.7939 12.1529 12.4721 11.7063 12.5694C11.2813 12.6618 11.2188 13.028 11.2464 13.4194C11.3341 14.6381 12.4411 15.7535 13.6789 15.8087C14.4726 15.8399 15.271 15.8123 16.067 15.8123ZM12.4351 6.73311C12.4183 5.5841 11.5094 4.70644 10.3592 4.73045C9.21977 4.75326 8.3361 5.67775 8.36012 6.82195C8.38293 7.95415 9.32663 8.86423 10.4468 8.83422C11.5886 8.803 12.4519 7.89172 12.4351 6.73311ZM21.7952 4.73285C20.6678 4.72685 19.7265 5.64893 19.7241 6.76192C19.7217 7.88572 20.6414 8.82221 21.7592 8.83422C22.8866 8.84622 23.7991 7.93975 23.8087 6.79554C23.8207 5.64413 22.9358 4.73885 21.7952 4.73285Z" fill="#1A4BD4"/>
<path d="M23.364 22.3626C25.5948 22.3734 27.8304 22.4863 30.0551 22.3686C32.753 22.2269 35.4712 24.16 35.6165 27.3573C35.6777 28.7044 35.751 30.0647 35.4868 31.3914C35.0294 33.6966 33.0279 35.3295 30.6062 35.4699C30.5234 35.4747 30.4381 35.4892 30.3589 35.476C28.8593 35.2118 27.7391 35.8253 26.7138 36.8843C25.7509 37.8784 25.5936 37.8172 24.5538 36.8507C24.4122 36.7198 24.2501 36.6045 24.1336 36.4545C23.4793 35.6092 22.6208 35.3871 21.5835 35.4663C19.4595 35.6272 17.7042 34.872 16.3787 33.1755C16.0641 32.3327 15.6463 31.5235 15.6667 30.5822C15.6907 29.456 15.6367 28.3274 15.6932 27.2036C15.8216 24.6042 18.0356 22.4767 20.6458 22.4034C21.551 22.3806 22.4575 22.3758 23.364 22.3626ZM26.9239 28.5783C26.9203 27.7246 26.2023 27.0271 25.3294 27.0319C24.4446 27.0355 23.7794 27.7174 23.7878 28.6107C23.7962 29.4872 24.4938 30.1775 25.3631 30.1691C26.2227 30.1595 26.9275 29.4416 26.9239 28.5783ZM31.227 28.5915C31.2318 27.7379 30.5138 27.0283 29.6493 27.0319C28.7561 27.0343 28.0909 27.7018 28.0921 28.5951C28.0921 29.4704 28.7861 30.1691 29.6529 30.1691C30.503 30.1679 31.2222 29.4476 31.227 28.5915ZM19.4872 28.5675C19.4764 29.4416 20.1607 30.1595 21.0144 30.1703C21.856 30.1812 22.604 29.4596 22.6208 28.6215C22.6376 27.7715 21.9304 27.0499 21.0696 27.0367C20.1835 27.0223 19.498 27.6862 19.4872 28.5675Z" fill="#5760D5"/>
<path d="M23.3632 22.3631C22.4567 22.3763 21.5502 22.3799 20.645 22.4063C18.0348 22.4796 15.8208 24.6071 15.6923 27.2065C15.6371 28.3303 15.6899 29.4589 15.6659 30.5851C15.6455 31.5264 16.0645 32.3356 16.3779 33.1784C11.2836 33.1832 6.18932 33.1796 1.09502 33.2061C0.516314 33.2097 0.439474 33.0091 0.459885 32.4929C0.672397 27.2365 5.07993 22.5684 10.3327 22.0726C10.9618 22.0137 11.5946 21.9765 12.2249 21.9297C14.8159 21.9297 17.4081 21.9297 19.999 21.9297C21.1252 22.0377 22.273 21.9813 23.3632 22.3631Z" fill="#1A4BD4"/>
<path d="M19.9987 21.9292C17.4078 21.9292 14.8156 21.9292 12.2246 21.9292C12.2246 20.9951 12.2258 20.061 12.2258 19.127C14.8156 19.127 17.4065 19.127 19.9963 19.127C19.9975 20.0598 19.9975 20.9939 19.9987 21.9292Z" fill="#C8CBF7"/>
<path d="M3.73076 4.71875C3.73076 7.42378 3.73076 10.1276 3.73076 12.8326C2.21676 12.7378 1.48678 11.9802 1.47957 10.4842C1.47357 9.33159 1.47237 8.17898 1.47957 7.02637C1.49038 5.49556 2.21916 4.75357 3.73076 4.71875Z" fill="#5760D5"/>
<path d="M28.4551 12.8335C28.4563 10.1273 28.4563 7.42108 28.4575 4.71484C29.9439 4.75567 30.7363 5.54448 30.7435 7.00446C30.7495 8.15346 30.7471 9.30247 30.7411 10.4527C30.7327 11.9991 29.9943 12.7651 28.4551 12.8335Z" fill="#5760D5"/>
</svg>
