<svg width="36" height="38" viewBox="0 0 36 38" fill="none" xmlns="http://www.w3.org/2000/svg">
<path d="M28.1251 13.0738C28.1167 13.841 28.1131 14.6082 28.0999 15.3754C28.0602 17.5653 26.3841 19.2738 24.187 19.3279C22.6814 19.3651 21.1734 19.3555 19.6666 19.3663C17.0768 19.3663 14.4859 19.3663 11.8961 19.3663C10.4709 19.3555 9.04458 19.3471 7.61942 19.3339C5.13891 19.3099 3.45082 17.6098 3.43401 15.1281C3.42921 14.4425 3.4124 13.7581 3.40039 13.0738C3.40039 10.3687 3.40039 7.66491 3.40039 4.95988C3.67894 2.25845 5.20615 0.869313 7.90638 0.866912C13.1832 0.86331 18.4612 0.905332 23.7367 0.8441C26.3037 0.814084 28.1359 2.72069 28.1275 4.95507C28.1275 7.66131 28.1263 10.3675 28.1251 13.0738ZM15.7369 16.0525C15.7369 16.0561 15.7369 16.0585 15.7369 16.0621C16.4789 16.0621 17.2209 16.0778 17.9617 16.0585C19.3124 16.0237 20.2825 15.1977 20.5743 13.877C20.6775 13.4111 20.7063 12.9393 20.1432 12.8072C19.5597 12.6692 19.5105 13.1998 19.3989 13.5816C19.1107 14.5602 18.7289 14.8795 17.694 14.8963C16.4585 14.9167 15.2218 14.9119 13.9864 14.9071C12.7569 14.9011 12.3968 14.6274 12.0786 13.4232C11.9753 13.0341 11.8228 12.7124 11.3762 12.8096C10.9512 12.9021 10.8888 13.2683 10.9164 13.6597C11.004 14.8783 12.111 15.9937 13.3489 16.0489C14.1425 16.0802 14.9409 16.0525 15.7369 16.0525ZM12.105 6.97334C12.0882 5.82433 11.1793 4.94667 10.0291 4.97068C8.88969 4.99349 8.00603 5.91798 8.03004 7.06219C8.05285 8.19439 8.99655 9.10447 10.1167 9.07445C11.2585 9.04324 12.1218 8.13196 12.105 6.97334ZM21.4651 4.97308C20.3378 4.96708 19.3965 5.88917 19.3941 7.00216C19.3917 8.12595 20.3113 9.06245 21.4291 9.07445C22.5565 9.08646 23.469 8.17998 23.4786 7.03578C23.4906 5.88437 22.6058 4.97909 21.4651 4.97308Z" fill="white"/>
<path d="M23.0339 22.6028C25.2647 22.6137 27.5003 22.7265 29.7251 22.6089C32.4229 22.4672 35.1411 24.4002 35.2864 27.5975C35.3476 28.9446 35.4209 30.3049 35.1567 31.6316C34.6993 33.9368 32.6978 35.5697 30.2762 35.7102C30.1933 35.715 30.1081 35.7294 30.0288 35.7162C28.5292 35.452 27.409 36.0656 26.3837 37.1245C25.4208 38.1187 25.2635 38.0574 24.2238 37.0909C24.0821 36.96 23.92 36.8448 23.8035 36.6947C23.1492 35.8495 22.2907 35.6273 21.2534 35.7066C19.1295 35.8675 17.3741 35.1123 16.0486 33.4158C15.7341 32.5729 15.3162 31.7637 15.3367 30.8224C15.3607 29.6962 15.3066 28.5676 15.3631 27.4438C15.4915 24.8444 17.7055 22.7169 20.3157 22.6437C21.221 22.6209 22.1275 22.6161 23.0339 22.6028ZM26.5938 28.8185C26.5902 27.9649 25.8722 27.2673 24.9994 27.2721C24.1145 27.2757 23.4494 27.9577 23.4578 28.851C23.4662 29.7274 24.1637 30.4178 25.033 30.4094C25.8926 30.3998 26.5974 29.6818 26.5938 28.8185ZM30.8969 28.8317C30.9017 27.9781 30.1837 27.2685 29.3193 27.2721C28.426 27.2745 27.7608 27.9421 27.762 28.8353C27.762 29.7106 28.456 30.4094 29.3229 30.4094C30.1729 30.4082 30.8921 29.6878 30.8969 28.8317ZM19.1571 28.8077C19.1463 29.6818 19.8306 30.3998 20.6843 30.4106C21.5259 30.4214 22.2739 29.6998 22.2907 28.8618C22.3075 28.0117 21.6004 27.2901 20.7395 27.2769C19.8534 27.2625 19.1679 27.9265 19.1571 28.8077Z" fill="#4EB1FC"/>
<path d="M23.0331 22.6034C22.1266 22.6166 21.2202 22.6202 20.3149 22.6466C17.7047 22.7198 15.4907 24.8473 15.3623 27.4467C15.307 28.5705 15.3599 29.6991 15.3358 30.8253C15.3154 31.7666 15.7345 32.5758 16.0478 33.4187C10.9535 33.4235 5.85924 33.4199 0.764942 33.4463C0.186236 33.4499 0.109396 33.2494 0.129807 32.7331C0.342319 27.4767 4.74985 22.8087 10.0026 22.3128C10.6318 22.254 11.2645 22.2167 11.8948 22.1699C14.4858 22.1699 17.078 22.1699 19.6689 22.1699C20.7951 22.278 21.9429 22.2216 23.0331 22.6034Z" fill="white"/>
<path d="M19.6686 22.1695C17.0777 22.1695 14.4855 22.1695 11.8945 22.1695C11.8945 21.2354 11.8957 20.3013 11.8957 19.3672C14.4855 19.3672 17.0765 19.3672 19.6662 19.3672C19.6674 20.3001 19.6674 21.2342 19.6686 22.1695Z" fill="#C8CBF7"/>
<path d="M3.40069 4.95898C3.40069 7.66402 3.40069 10.3678 3.40069 13.0729C1.88668 12.978 1.1567 12.2204 1.14949 10.7244C1.14349 9.57182 1.14229 8.41922 1.14949 7.26661C1.1603 5.7358 1.88909 4.9938 3.40069 4.95898Z" fill="#D5D5D5"/>
<path d="M28.125 13.0738C28.1262 10.3675 28.1262 7.66131 28.1274 4.95508C29.6138 4.9959 30.4062 5.78472 30.4134 7.24469C30.4194 8.3937 30.417 9.54271 30.411 10.6929C30.4026 12.2393 29.6642 13.0053 28.125 13.0738Z" fill="#D5D5D5"/>
</svg>
