<svg width="59" height="60" viewBox="0 0 59 60" fill="none" xmlns="http://www.w3.org/2000/svg">
<g filter="url(#filter0_dd_1949_3924)">
<path d="M11.8191 18.3664C13.0699 12.1938 16.9186 8.75585 22.9218 7.71727C27.3596 6.94969 31.7991 6.93997 36.2294 7.73883C42.4106 8.85331 46.1265 12.4918 47.3102 18.7577C48.2248 23.6002 48.2392 28.4944 47.2959 33.3324C46.0304 39.4622 42.0825 43.2461 36.1014 44.2808C31.6636 45.0483 27.2242 45.0581 22.7938 44.2593C16.6126 43.1447 12.8803 39.3246 11.6966 33.0588C10.7353 28.1843 10.8278 23.2592 11.8191 18.3664V18.3664Z" fill="#3FA6EB"/>
</g>
<path d="M11.8191 18.3664C13.0699 12.1938 16.9186 8.75585 22.9218 7.71727C27.3596 6.94969 31.7991 6.93997 36.2294 7.73883C42.4106 8.85331 46.1265 12.4918 47.3102 18.7577C48.2248 23.6002 48.2392 28.4944 47.2959 33.3324C46.0304 39.4622 42.0825 43.2461 36.1014 44.2808C31.6636 45.0483 27.2242 45.0581 22.7938 44.2593C16.6126 43.1447 12.8803 39.3246 11.6966 33.0588C10.7353 28.1843 10.8278 23.2592 11.8191 18.3664V18.3664Z" fill="#2431DD"/>
<path fill-rule="evenodd" clip-rule="evenodd" d="M22.6043 31.7139L19.7722 28.8151L20.8233 27.7392L23.6553 30.638L26.4873 27.7392L27.5384 28.8151L20.9984 35.5092L19.9474 34.4334L22.6043 31.7139ZM22.9559 19.608H19.4463V21.1295H27.9519V19.608H24.4423V16.0156H22.9559V19.608ZM24.401 22.3129V24.8486H22.9146V22.3129H24.401ZM25.4947 32.5805L27.5676 34.7023L26.5165 35.7782L24.4436 33.6564L25.4947 32.5805ZM31.1725 19.5657H39.6781V21.0872H31.1725V19.5657ZM31.1725 30.8923H39.6781V32.4138H31.1725V30.8923ZM35.4666 29.4553C34.9193 29.4553 34.4756 29.0012 34.4756 28.441C34.4756 27.8809 34.9193 27.4267 35.4666 27.4267C36.0138 27.4267 36.4575 27.8809 36.4575 28.441C36.4575 29.0012 36.0138 29.4553 35.4666 29.4553ZM35.4666 35.7948C34.9193 35.7948 34.4756 35.3407 34.4756 34.7805C34.4756 34.2204 34.9193 33.7662 35.4666 33.7662C36.0138 33.7662 36.4575 34.2204 36.4575 34.7805C36.4575 35.3407 36.0138 35.7948 35.4666 35.7948Z" fill="white"/>
<defs>
<filter id="filter0_dd_1949_3924" x="0.0234375" y="0.140625" width="58.9766" height="59.7168" filterUnits="userSpaceOnUse" color-interpolation-filters="sRGB">
<feFlood flood-opacity="0" result="BackgroundImageFix"/>
<feColorMatrix in="SourceAlpha" type="matrix" values="0 0 0 0 0 0 0 0 0 0 0 0 0 0 0 0 0 0 127 0" result="hardAlpha"/>
<feOffset dy="5"/>
<feGaussianBlur stdDeviation="4"/>
<feColorMatrix type="matrix" values="0 0 0 0 0 0 0 0 0 0 0 0 0 0 0 0 0 0 0.078125 0"/>
<feBlend mode="normal" in2="BackgroundImageFix" result="effect1_dropShadow_1949_3924"/>
<feColorMatrix in="SourceAlpha" type="matrix" values="0 0 0 0 0 0 0 0 0 0 0 0 0 0 0 0 0 0 127 0" result="hardAlpha"/>
<feOffset dy="4"/>
<feGaussianBlur stdDeviation="5.5"/>
<feColorMatrix type="matrix" values="0 0 0 0 0 0 0 0 0 0 0 0 0 0 0 0 0 0 0.210824 0"/>
<feBlend mode="normal" in2="effect1_dropShadow_1949_3924" result="effect2_dropShadow_1949_3924"/>
<feBlend mode="normal" in="SourceGraphic" in2="effect2_dropShadow_1949_3924" result="shape"/>
</filter>
</defs>
</svg>
