<svg width="30" height="38" viewBox="0 0 30 38" fill="none" xmlns="http://www.w3.org/2000/svg">
<path d="M29.7438 7.89616C29.7292 6.90106 29.6855 5.9108 29.7146 4.91569C29.7535 3.48371 29.4768 2.18764 28.3749 1.17312C28.2195 1.13429 28.1128 1.0372 28.0448 0.896428C27.1953 0.367322 26.239 0.245973 25.2779 0.245973C18.4529 0.23141 11.628 0.241118 4.80297 0.245973C4.49716 0.245973 4.1962 0.245969 3.89038 0.333344C1.95842 0.872159 0.856519 2.35754 0.851665 4.51765C0.841956 8.72623 0.846812 12.9348 0.846812 17.1434C0.846812 22.3762 0.875934 27.6138 0.832247 32.8467C0.807976 35.5553 2.83702 37.3271 5.17674 37.2348C8.30283 37.1135 11.4386 37.2057 14.5696 37.2057C18.2636 37.2057 21.9577 37.2251 25.6565 37.2009C27.8992 37.1912 29.4671 35.764 29.6515 33.5554C29.7438 32.4826 29.7098 31.405 29.7389 30.3273C29.5253 30.24 29.5302 30.1526 29.7389 30.0604C29.7292 26.4197 29.7049 22.7839 29.7049 19.1433C29.7049 15.4784 29.7244 11.8135 29.7389 8.14858C29.7438 8.06606 29.7438 7.97868 29.7438 7.89616ZM5.97768 24.2645H6.89998V24.2742C7.48733 24.2742 8.07954 24.2693 8.6669 24.2742C9.16688 24.279 9.39017 24.5315 9.42415 25.0411C9.56007 27.0508 9.51153 27.1187 7.49704 27.1187C6.80289 27.1187 6.1136 27.1139 5.41945 27.1187C4.85636 27.1236 4.46803 26.9391 4.45832 26.2935C4.45832 26.2158 4.4292 26.143 4.41949 26.0654C4.20105 24.512 4.41463 24.2645 5.97768 24.2645ZM4.56997 19.4346C4.67676 19.2016 4.92918 19.1773 5.17189 19.1821C6.29806 19.187 7.41937 19.1918 8.54554 19.1821C9.11348 19.1773 9.39988 19.4346 9.39988 20.0122C9.40473 22.2306 9.52124 21.9442 7.55044 21.9539C7.34656 21.9539 7.14269 21.9539 6.93881 21.9539C6.55533 21.9539 6.17185 21.9781 5.78837 21.949C5.38062 21.915 4.78841 22.182 4.6088 21.6772C4.35639 20.9636 4.22532 20.1772 4.56997 19.4346ZM9.39503 31.5166C9.47269 31.9778 9.1329 32.2011 8.67175 32.2011C7.52131 32.2011 6.37087 32.2059 5.22043 32.2011C4.77384 32.2011 4.53599 31.9681 4.43891 31.5215C4.06028 29.7643 4.36609 29.3614 6.13787 29.3614H6.9825V29.3808C7.49219 29.3808 8.00673 29.3759 8.51642 29.3808C8.67175 29.3808 8.85136 29.3614 8.96786 29.4293C9.85617 29.9536 9.28338 30.8128 9.39503 31.5166ZM17.7345 31.5506C17.8122 32.0263 17.4238 32.2011 16.9821 32.1962C16.419 32.1962 15.8608 32.1962 15.2977 32.1962C14.7346 32.1962 14.1715 32.1962 13.6085 32.1962C13.1182 32.1962 12.8464 31.9778 12.8415 31.4584C12.8318 29.1769 12.5745 29.3419 14.7443 29.3516C15.356 29.3565 15.9724 29.3468 16.5841 29.3565C16.8122 29.3614 17.0792 29.3177 17.2637 29.4148C18.2248 29.9341 17.6229 30.8322 17.7345 31.5506ZM16.9773 24.2742C17.5161 24.279 17.7831 24.546 17.7588 25.0897C17.7588 25.114 17.7588 25.1431 17.7588 25.1673C17.8219 27.1042 17.8219 27.1042 15.8754 27.1187C15.1327 27.1236 14.39 27.1284 13.6473 27.1139C13.1376 27.1042 12.8415 26.8809 12.8415 26.3129C12.8464 24.0994 12.6036 24.2499 14.7443 24.2645C14.9239 24.2645 15.1035 24.2645 15.2832 24.2645V24.2742C15.8462 24.2742 16.4142 24.2742 16.9773 24.2742ZM15.4191 19.1918V21.7257C15.2492 20.9054 15.2686 20.051 15.4191 19.1918ZM15.3074 16.7065C12.3609 16.7065 9.40959 16.7065 6.4631 16.7065C5.00199 16.7065 4.46803 16.1725 4.46803 14.7114C4.46318 12.1727 4.46318 9.63396 4.46803 7.09522C4.47289 5.81857 5.01655 5.26519 6.29806 5.26519C12.2978 5.26034 18.2976 5.2652 24.2974 5.27005C25.5886 5.27005 26.1322 5.81372 26.1371 7.08551C26.1468 9.67279 26.1468 12.2649 26.142 14.8522C26.1371 16.1094 25.5595 16.6968 24.3119 16.6968C21.3072 16.7114 18.3073 16.7065 15.3074 16.7065ZM24.3216 32.2011H23.6323C23.1227 32.2011 22.6081 32.1816 22.0984 32.2059C21.4383 32.2399 21.2004 31.9292 21.1664 31.2933C21.0596 29.3662 21.0548 29.3516 22.9479 29.3565C23.7391 29.3565 24.5352 29.3759 25.3265 29.3759C25.9429 29.3759 26.1759 29.6866 26.1856 30.2885C26.2099 32.2011 26.2196 32.2011 24.3216 32.2011ZM24.2537 27.1187C23.5353 27.1187 22.8168 27.109 22.0984 27.1187C21.4577 27.1284 21.1955 26.8275 21.1616 26.1867C21.0645 24.279 21.0596 24.2645 22.9819 24.2645H23.5984V24.2742C24.1857 24.2742 24.7779 24.2693 25.3701 24.279C25.8944 24.2887 26.142 24.5412 26.1759 25.0897C26.2779 27.0605 26.2342 27.1187 24.2537 27.1187Z" fill="white"/>
<path d="M29.7443 30.3266C29.5307 30.2392 29.5356 30.1518 29.7443 30.0645C29.7443 30.1518 29.7443 30.2392 29.7443 30.3266Z" fill="#CEE7FE"/>
<path d="M15.3079 16.707C12.3614 16.707 9.41004 16.707 6.46355 16.707C5.00244 16.707 4.46848 16.173 4.46848 14.7119C4.46363 12.1732 4.46363 9.63445 4.46848 7.09571C4.47334 5.81906 5.017 5.26568 6.29851 5.26568C12.2983 5.26083 18.2981 5.26569 24.2978 5.27054C25.589 5.27054 26.1327 5.8142 26.1376 7.086C26.1473 9.67328 26.1473 12.2654 26.1424 14.8527C26.1376 16.1099 25.5599 16.6973 24.3124 16.6973C21.3076 16.7118 18.3078 16.707 15.3079 16.707Z" fill="#CEE7FE"/>
<path d="M23.6324 32.2004C23.1227 32.2004 22.6081 32.181 22.0984 32.2052C21.4383 32.2392 21.2004 31.9285 21.1664 31.2927C21.0596 29.3655 21.0548 29.351 22.9479 29.3558C23.7392 29.3558 24.5304 29.3752 25.3265 29.3752C25.9429 29.3752 26.1759 29.6859 26.1857 30.2878C26.2099 32.2052 26.2196 32.2052 24.3217 32.2052C24.0887 32.2004 23.8605 32.2004 23.6324 32.2004Z" fill="#CEE7FE"/>
<path d="M23.5985 24.2734C24.1859 24.2734 24.7781 24.2637 25.3654 24.2734C25.8897 24.2831 26.1421 24.5355 26.1712 25.084C26.2829 27.0548 26.2343 27.1179 24.2538 27.1179C23.5354 27.1179 22.817 27.1082 22.0986 27.1179C21.4578 27.1276 21.1957 26.8267 21.1617 26.1859C21.0646 24.2782 21.0598 24.2637 22.982 24.2637C23.1859 24.2637 23.3946 24.2637 23.5985 24.2637C23.5985 24.2685 23.5985 24.2734 23.5985 24.2734Z" fill="#CEE7FE"/>
<path d="M23.5985 19.0663C24.1859 19.0663 24.7781 19.0566 25.3654 19.0663C25.8897 19.0761 26.1421 19.3285 26.1712 19.877C26.2829 21.8478 26.2343 21.9109 24.2538 21.9109C23.5354 21.9109 22.817 21.9012 22.0986 21.9109C21.4578 21.9206 21.1957 21.6196 21.1617 20.9789C21.0646 19.0712 21.0598 19.0566 22.982 19.0566C23.1859 19.0566 23.3946 19.0566 23.5985 19.0566C23.5985 19.0615 23.5985 19.0615 23.5985 19.0663Z" fill="#43F043"/>
<path d="M6.97716 29.371C7.48685 29.371 8.0014 29.3661 8.51109 29.371C8.66157 29.371 8.84602 29.3516 8.96252 29.4195C9.85084 29.9486 9.27805 30.8078 9.38969 31.5068C9.46736 31.968 9.12757 32.1913 8.66642 32.1913C7.51598 32.1913 6.36554 32.1961 5.21024 32.1913C4.76366 32.1913 4.5258 31.9583 4.42871 31.5117C4.05009 29.7545 4.3559 29.3516 6.12768 29.3516C6.40922 29.3516 6.69076 29.3516 6.97231 29.3516C6.97716 29.3613 6.97716 29.3661 6.97716 29.371Z" fill="#CEE7FE"/>
<path d="M6.90012 24.2743C7.48748 24.2743 8.07969 24.2695 8.66704 24.2743C9.16702 24.2792 9.38546 24.5316 9.4243 25.0413C9.56021 27.0509 9.51167 27.1189 7.49719 27.1189C6.80304 27.1189 6.11374 27.114 5.41959 27.1189C4.85651 27.1237 4.46818 26.9393 4.45847 26.2937C4.45847 26.216 4.42934 26.1432 4.41963 26.0655C4.2012 24.5073 4.41478 24.2598 5.97783 24.2598C6.28364 24.2598 6.59431 24.2598 6.90012 24.2598C6.90012 24.2695 6.90012 24.2743 6.90012 24.2743Z" fill="#CEE7FE"/>
<path d="M15.2975 32.2003C14.7345 32.2003 14.1714 32.2003 13.6131 32.2003C13.1229 32.2003 12.851 31.9818 12.8462 31.4624C12.8365 29.1809 12.5792 29.346 14.749 29.3557C15.3606 29.3606 15.9771 29.3508 16.5887 29.3606C16.8169 29.3654 17.0839 29.3217 17.2683 29.4188C18.2198 29.9333 17.6178 30.8314 17.7343 31.5546C17.812 32.0304 17.4237 32.2051 16.9819 32.2003C16.4237 32.2003 15.8606 32.2003 15.2975 32.2003Z" fill="#CEE7FE"/>
<path d="M15.2827 24.2748C15.8458 24.2748 16.4089 24.2748 16.9768 24.2748C17.5156 24.2797 17.7826 24.5466 17.7584 25.0903C17.7584 25.1146 17.7584 25.1437 17.7584 25.168C17.8215 27.1048 17.8215 27.1048 15.8798 27.1194C15.1371 27.1242 14.3944 27.1291 13.6517 27.1145C13.142 27.1048 12.8459 26.8767 12.8459 26.3136C12.8508 24.1001 12.6081 24.2505 14.7536 24.2651C14.9332 24.2651 15.1128 24.2651 15.2924 24.2651C15.2827 24.27 15.2827 24.2748 15.2827 24.2748Z" fill="#CEE7FE"/>
<path d="M15.2827 19.099C15.8458 19.099 16.4089 19.099 16.9768 19.099C17.5156 19.1039 17.7826 19.3709 17.7584 19.9145C17.7584 19.9388 17.7584 19.9679 17.7584 19.9922C17.8215 21.929 17.8215 21.929 15.8798 21.9436C15.1371 21.9484 14.3944 21.9533 13.6517 21.9387C13.142 21.929 12.8459 21.7009 12.8459 21.1378C12.8508 18.9243 12.6081 19.0748 14.7536 19.0893C14.9332 19.0893 15.1128 19.0893 15.2924 19.0893C15.2827 19.0942 15.2827 19.0942 15.2827 19.099Z" fill="#4EB1FC"/>
<path d="M6.93907 21.953C6.55558 21.953 6.1721 21.9772 5.78862 21.9481C5.38087 21.9141 4.78866 22.1763 4.60906 21.6763C4.35664 20.9676 4.22557 20.1812 4.57022 19.4385C4.67701 19.2055 4.92943 19.1812 5.17214 19.1861C6.29831 19.1909 7.41963 19.1958 8.5458 19.1861C9.11374 19.1812 9.40013 19.4385 9.40013 20.0161C9.40499 22.2345 9.52149 21.9481 7.55069 21.9578C7.34682 21.953 7.14294 21.953 6.93907 21.953Z" fill="#FD5BA6"/>
</svg>
