<svg width="30" height="37" viewBox="0 0 30 37" fill="none" xmlns="http://www.w3.org/2000/svg">
<path d="M29.7672 7.65593C29.7526 6.66082 29.709 5.67057 29.7381 4.67546C29.7769 3.24348 29.5002 1.94741 28.3983 0.932886C28.243 0.894052 28.1362 0.796965 28.0682 0.656194C27.2188 0.127088 26.2625 0.00573813 25.3013 0.00573813C18.4764 -0.00882442 11.6514 0.000883945 4.82641 0.00573813C4.52059 0.00573813 4.21963 0.00573457 3.91382 0.0931099C1.98185 0.631924 0.879956 2.11731 0.875102 4.27742C0.865394 8.48599 0.870249 12.6946 0.870249 16.9031C0.870249 22.1359 0.899372 27.3736 0.855684 32.6064C0.831413 35.3151 2.86046 37.0868 5.20018 36.9946C8.32627 36.8733 11.4621 36.9655 14.593 36.9655C18.2871 36.9655 21.9811 36.9849 25.68 36.9606C27.9226 36.9509 29.4905 35.5238 29.675 33.3151C29.7672 32.2424 29.7332 31.1647 29.7624 30.0871C29.5488 29.9997 29.5536 29.9124 29.7624 29.8201C29.7526 26.1795 29.7284 22.5437 29.7284 18.9031C29.7284 15.2382 29.7478 11.5733 29.7624 7.90834C29.7672 7.82582 29.7672 7.73845 29.7672 7.65593ZM6.00112 24.0242H6.92341V24.0339C7.51077 24.0339 8.10298 24.0291 8.69034 24.0339C9.19032 24.0388 9.41361 24.2912 9.44759 24.8009C9.58351 26.8105 9.53497 26.8785 7.52048 26.8785C6.82633 26.8785 6.13704 26.8736 5.44289 26.8785C4.8798 26.8833 4.49147 26.6989 4.48176 26.0533C4.48176 25.9756 4.45264 25.9028 4.44293 25.8251C4.22449 24.2718 4.43807 24.0242 6.00112 24.0242ZM4.59341 19.1943C4.7002 18.9613 4.95262 18.937 5.19532 18.9419C6.3215 18.9468 7.44281 18.9516 8.56898 18.9419C9.13692 18.937 9.42332 19.1943 9.42332 19.772C9.42817 21.9903 9.54467 21.7039 7.57387 21.7136C7.37 21.7136 7.16612 21.7136 6.96225 21.7136C6.57877 21.7136 6.19528 21.7379 5.8118 21.7088C5.40405 21.6748 4.81185 21.9418 4.63224 21.437C4.37982 20.7234 4.24876 19.937 4.59341 19.1943ZM9.41846 31.2764C9.49613 31.7375 9.15634 31.9608 8.69519 31.9608C7.54475 31.9608 6.39431 31.9657 5.24387 31.9608C4.79728 31.9608 4.55943 31.7278 4.46234 31.2812C4.08372 29.524 4.38953 29.1211 6.16131 29.1211H7.00594V29.1405C7.51563 29.1405 8.03017 29.1357 8.53986 29.1405C8.69519 29.1405 8.87479 29.1211 8.99129 29.1891C9.87961 29.7133 9.30682 30.5725 9.41846 31.2764ZM17.758 31.3104C17.8356 31.7861 17.4473 31.9608 17.0056 31.956C16.4425 31.956 15.8842 31.956 15.3211 31.956C14.7581 31.956 14.195 31.956 13.6319 31.956C13.1416 31.956 12.8698 31.7375 12.8649 31.2181C12.8552 28.9367 12.598 29.1017 14.7678 29.1114C15.3794 29.1163 15.9959 29.1066 16.6075 29.1163C16.8357 29.1211 17.1026 29.0774 17.2871 29.1745C18.2482 29.6939 17.6463 30.5919 17.758 31.3104ZM17.0007 24.0339C17.5395 24.0388 17.8065 24.3058 17.7822 24.8494C17.7822 24.8737 17.7822 24.9028 17.7822 24.9271C17.8453 26.8639 17.8453 26.8639 15.8988 26.8785C15.1561 26.8833 14.4134 26.8882 13.6707 26.8736C13.161 26.8639 12.8649 26.6406 12.8649 26.0727C12.8698 23.8592 12.6271 24.0097 14.7678 24.0242C14.9474 24.0242 15.127 24.0242 15.3066 24.0242V24.0339C15.8697 24.0339 16.4376 24.0339 17.0007 24.0339ZM15.4425 18.9516V21.4855C15.2726 20.6651 15.292 19.8108 15.4425 18.9516ZM15.3309 16.4663C12.3844 16.4663 9.43303 16.4663 6.48654 16.4663C5.02543 16.4663 4.49147 15.9323 4.49147 14.4712C4.48661 11.9325 4.48661 9.39373 4.49147 6.85499C4.49632 5.57834 5.03999 5.02496 6.32149 5.02496C12.3213 5.0201 18.321 5.02496 24.3208 5.02982C25.612 5.02982 26.1557 5.57348 26.1605 6.84528C26.1702 9.43256 26.1703 12.0247 26.1654 14.612C26.1605 15.8692 25.5829 16.4566 24.3354 16.4566C21.3306 16.4711 18.3307 16.4663 15.3309 16.4663ZM24.3451 31.9608H23.6558C23.1461 31.9608 22.6315 31.9414 22.1219 31.9657C21.4617 31.9997 21.2238 31.689 21.1899 31.0531C21.0831 29.126 21.0782 29.1114 22.9713 29.1163C23.7626 29.1163 24.5587 29.1357 25.3499 29.1357C25.9664 29.1357 26.1994 29.4464 26.2091 30.0483C26.2333 31.9608 26.2431 31.9608 24.3451 31.9608ZM24.2771 26.8785C23.5587 26.8785 22.8403 26.8688 22.1219 26.8785C21.4811 26.8882 21.219 26.5872 21.185 25.9465C21.0879 24.0388 21.0831 24.0242 23.0053 24.0242H23.6218V24.0339C24.2092 24.0339 24.8014 24.0291 25.3936 24.0388C25.9178 24.0485 26.1654 24.3009 26.1994 24.8494C26.3013 26.8202 26.2576 26.8785 24.2771 26.8785Z" fill="#1A4BD4"/>
<path d="M29.7677 30.0863C29.5542 29.999 29.559 29.9116 29.7677 29.8242C29.7677 29.9116 29.7677 29.999 29.7677 30.0863Z" fill="#CEE7FE"/>
<path d="M15.3313 16.4668C12.3848 16.4668 9.43348 16.4668 6.48699 16.4668C5.02588 16.4668 4.49192 15.9328 4.49192 14.4717C4.48707 11.933 4.48707 9.39422 4.49192 6.85548C4.49678 5.57883 5.04044 5.02545 6.32195 5.02545C12.3217 5.02059 18.3215 5.02545 24.3213 5.03031C25.6125 5.03031 26.1561 5.57397 26.161 6.84577C26.1707 9.43305 26.1707 12.0252 26.1658 14.6125C26.161 15.8697 25.5833 16.457 24.3358 16.457C21.3311 16.4716 18.3312 16.4668 15.3313 16.4668Z" fill="#CEE7FE"/>
<path d="M23.6558 31.9602C23.1461 31.9602 22.6316 31.9407 22.1219 31.965C21.4617 31.999 21.2239 31.6883 21.1899 31.0524C21.0831 29.1253 21.0782 29.1107 22.9714 29.1156C23.7626 29.1156 24.5538 29.135 25.3499 29.135C25.9664 29.135 26.1994 29.4457 26.2091 30.0476C26.2334 31.965 26.2431 31.965 24.3451 31.965C24.1121 31.9602 23.8839 31.9602 23.6558 31.9602Z" fill="#CEE7FE"/>
<path d="M23.6219 24.0331C24.2093 24.0331 24.8015 24.0234 25.3889 24.0331C25.9131 24.0429 26.1655 24.2953 26.1947 24.8438C26.3063 26.8146 26.2578 26.8777 24.2773 26.8777C23.5588 26.8777 22.8404 26.868 22.122 26.8777C21.4812 26.8874 21.2191 26.5864 21.1851 25.9457C21.0881 24.038 21.0832 24.0234 23.0055 24.0234C23.2093 24.0234 23.4181 24.0234 23.6219 24.0234C23.6219 24.0283 23.6219 24.0331 23.6219 24.0331Z" fill="#CEE7FE"/>
<path d="M23.6219 18.8261C24.2093 18.8261 24.8015 18.8164 25.3889 18.8261C25.9131 18.8358 26.1655 19.0882 26.1947 19.6368C26.3063 21.6076 26.2578 21.6707 24.2773 21.6707C23.5588 21.6707 22.8404 21.661 22.122 21.6707C21.4812 21.6804 21.2191 21.3794 21.1851 20.7387C21.0881 18.831 21.0832 18.8164 23.0055 18.8164C23.2093 18.8164 23.4181 18.8164 23.6219 18.8164C23.6219 18.8213 23.6219 18.8213 23.6219 18.8261Z" fill="#43F043"/>
<path d="M7.0006 29.1308C7.51029 29.1308 8.02484 29.1259 8.53452 29.1308C8.685 29.1308 8.86946 29.1113 8.98596 29.1793C9.87428 29.7084 9.30148 30.5676 9.41313 31.2666C9.4908 31.7277 9.151 31.951 8.68986 31.951C7.53941 31.951 6.38898 31.9559 5.23368 31.951C4.7871 31.951 4.54924 31.718 4.45215 31.2714C4.07353 29.5142 4.37934 29.1113 6.15112 29.1113C6.43266 29.1113 6.7142 29.1113 6.99574 29.1113C7.0006 29.121 7.0006 29.1259 7.0006 29.1308Z" fill="#CEE7FE"/>
<path d="M6.92356 24.0341C7.51091 24.0341 8.10313 24.0292 8.69048 24.0341C9.19046 24.039 9.4089 24.2914 9.44773 24.8011C9.58365 26.8107 9.53511 26.8786 7.52062 26.8786C6.82648 26.8786 6.13718 26.8738 5.44303 26.8786C4.87995 26.8835 4.49162 26.699 4.48191 26.0534C4.48191 25.9758 4.45278 25.903 4.44307 25.8253C4.22463 24.2671 4.43822 24.0195 6.00126 24.0195C6.30708 24.0195 6.61774 24.0195 6.92356 24.0195C6.92356 24.0292 6.92356 24.0341 6.92356 24.0341Z" fill="#CEE7FE"/>
<path d="M15.321 31.96C14.7579 31.96 14.1948 31.96 13.6366 31.96C13.1463 31.96 12.8745 31.7416 12.8696 31.2222C12.8599 28.9407 12.6026 29.1058 14.7725 29.1155C15.3841 29.1203 16.0006 29.1106 16.6122 29.1203C16.8403 29.1252 17.1073 29.0815 17.2918 29.1786C18.2432 29.6931 17.6413 30.5911 17.7578 31.3144C17.8354 31.7901 17.4471 31.9649 17.0054 31.96C16.4471 31.96 15.8841 31.96 15.321 31.96Z" fill="#CEE7FE"/>
<path d="M15.3062 24.0346C15.8692 24.0346 16.4323 24.0346 17.0003 24.0346C17.5391 24.0394 17.8061 24.3064 17.7818 24.8501C17.7818 24.8744 17.7818 24.9035 17.7818 24.9277C17.8449 26.8646 17.8449 26.8646 15.9032 26.8791C15.1605 26.884 14.4178 26.8888 13.6751 26.8743C13.1655 26.8646 12.8694 26.6364 12.8694 26.0733C12.8742 23.8598 12.6315 24.0103 14.7771 24.0249C14.9567 24.0249 15.1363 24.0249 15.3159 24.0249C15.3062 24.0297 15.3062 24.0346 15.3062 24.0346Z" fill="#CEE7FE"/>
<path d="M15.3062 18.8588C15.8692 18.8588 16.4323 18.8588 17.0003 18.8588C17.5391 18.8637 17.8061 19.1306 17.7818 19.6743C17.7818 19.6986 17.7818 19.7277 17.7818 19.752C17.8449 21.6888 17.8449 21.6888 15.9032 21.7034C15.1605 21.7082 14.4178 21.7131 13.6751 21.6985C13.1655 21.6888 12.8694 21.4606 12.8694 20.8976C12.8742 18.684 12.6315 18.8345 14.7771 18.8491C14.9567 18.8491 15.1363 18.8491 15.3159 18.8491C15.3062 18.8539 15.3062 18.8539 15.3062 18.8588Z" fill="#4EB1FC"/>
<path d="M6.9625 21.7127C6.57902 21.7127 6.19554 21.737 5.81206 21.7079C5.40431 21.6739 4.8121 21.936 4.6325 21.436C4.38008 20.7273 4.24901 19.9409 4.59366 19.1983C4.70045 18.9653 4.95287 18.941 5.19558 18.9458C6.32175 18.9507 7.44307 18.9556 8.56924 18.9458C9.13718 18.941 9.42357 19.1983 9.42357 19.7759C9.42843 21.9943 9.54493 21.7079 7.57413 21.7176C7.37025 21.7127 7.16638 21.7127 6.9625 21.7127Z" fill="#FD5BA6"/>
</svg>
