<svg width="28" height="24" viewBox="0 0 28 24" fill="none" xmlns="http://www.w3.org/2000/svg">
<path fill-rule="evenodd" clip-rule="evenodd" d="M10.68 0.839098C12.8917 0.720301 15.1083 0.720301 17.32 0.839098C18.5287 0.904098 19.6075 1.57035 20.235 2.5766L21.2612 4.22285C21.5613 4.7016 22.0675 5.0266 22.6488 5.11035C23.1313 5.17785 23.6112 5.2516 24.0887 5.3316C25.8787 5.63035 27.125 7.19785 27.125 8.96785V19.5003C27.125 20.4949 26.7299 21.4487 26.0267 22.152C25.3234 22.8553 24.3696 23.2503 23.375 23.2503H4.625C3.63044 23.2503 2.67661 22.8553 1.97335 22.152C1.27009 21.4487 0.875 20.4949 0.875 19.5003V8.96785C0.875 7.19785 2.12125 5.63035 3.91125 5.3316C4.38875 5.2516 4.86875 5.17785 5.35 5.1091C5.63202 5.07135 5.90236 4.97235 6.14205 4.81903C6.38174 4.66571 6.58498 4.4618 6.7375 4.2216L7.765 2.57785C8.07562 2.07541 8.5027 1.6552 9.0101 1.35276C9.5175 1.05032 10.0903 0.87331 10.68 0.839098ZM7.4375 12.9378C7.4375 11.1974 8.1289 9.52817 9.35961 8.29746C10.5903 7.06675 12.2595 6.37535 14 6.37535C15.7405 6.37535 17.4097 7.06675 18.6404 8.29746C19.8711 9.52817 20.5625 11.1974 20.5625 12.9378C20.5625 14.6783 19.8711 16.3475 18.6404 17.5782C17.4097 18.8089 15.7405 19.5003 14 19.5003C12.2595 19.5003 10.5903 18.8089 9.35961 17.5782C8.1289 16.3475 7.4375 14.6783 7.4375 12.9378ZM22.4375 11.0628C22.6861 11.0628 22.9246 10.9641 23.1004 10.7883C23.2762 10.6124 23.375 10.374 23.375 10.1253C23.375 9.87671 23.2762 9.63825 23.1004 9.46244C22.9246 9.28662 22.6861 9.18785 22.4375 9.18785C22.1889 9.18785 21.9504 9.28662 21.7746 9.46244C21.5988 9.63825 21.5 9.87671 21.5 10.1253C21.5 10.374 21.5988 10.6124 21.7746 10.7883C21.9504 10.9641 22.1889 11.0628 22.4375 11.0628Z" fill="white"/>
</svg>
