<svg width="160" height="161" viewBox="0 0 160 161" fill="none" xmlns="http://www.w3.org/2000/svg">
<path d="M145.067 107.025L102.4 30.2246C96.6665 19.8913 88.7332 14.2246 79.9998 14.2246C71.2665 14.2246 63.3332 19.8913 57.5999 30.2246L14.9332 107.025C9.53318 116.825 8.93318 126.225 13.2665 133.625C17.5999 141.025 26.1332 145.091 37.3332 145.091H122.667C133.867 145.091 142.4 141.025 146.733 133.625C151.067 126.225 150.467 116.758 145.067 107.025ZM74.9998 60.8913C74.9998 58.1579 77.2665 55.8913 79.9998 55.8913C82.7332 55.8913 84.9998 58.1579 84.9998 60.8913V94.2246C84.9998 96.9579 82.7332 99.2246 79.9998 99.2246C77.2665 99.2246 74.9998 96.9579 74.9998 94.2246V60.8913ZM84.7332 118.958C84.3998 119.225 84.0665 119.491 83.7332 119.758C83.3332 120.025 82.9332 120.225 82.5332 120.358C82.1332 120.558 81.7332 120.691 81.2665 120.758C80.8665 120.825 80.3998 120.891 79.9998 120.891C79.5999 120.891 79.1332 120.825 78.6665 120.758C78.2665 120.691 77.8665 120.558 77.4665 120.358C77.0665 120.225 76.6665 120.025 76.2665 119.758C75.9332 119.491 75.5999 119.225 75.2665 118.958C74.0665 117.691 73.3332 115.958 73.3332 114.225C73.3332 112.491 74.0665 110.758 75.2665 109.491C75.5999 109.225 75.9332 108.958 76.2665 108.691C76.6665 108.425 77.0665 108.225 77.4665 108.091C77.8665 107.891 78.2665 107.758 78.6665 107.691C79.5332 107.491 80.4665 107.491 81.2665 107.691C81.7332 107.758 82.1332 107.891 82.5332 108.091C82.9332 108.225 83.3332 108.425 83.7332 108.691C84.0665 108.958 84.3998 109.225 84.7332 109.491C85.9332 110.758 86.6665 112.491 86.6665 114.225C86.6665 115.958 85.9332 117.691 84.7332 118.958Z" fill="#FF3D60"/>
</svg>
