<svg width="22" height="22" viewBox="0 0 22 22" fill="none" xmlns="http://www.w3.org/2000/svg">
<path d="M19.25 20.166H2.75C2.37417 20.166 2.0625 19.8543 2.0625 19.4785C2.0625 19.1027 2.37417 18.791 2.75 18.791H19.25C19.6258 18.791 19.9375 19.1027 19.9375 19.4785C19.9375 19.8543 19.6258 20.166 19.25 20.166Z" fill="#292D32"/>
<path d="M17.4341 3.19084C15.6557 1.4125 13.9141 1.36667 12.0899 3.19084L10.9807 4.3C10.8891 4.39167 10.8524 4.53834 10.8891 4.66667C11.5857 7.09584 13.5291 9.03917 15.9582 9.73584C15.9949 9.745 16.0316 9.75417 16.0682 9.75417C16.1691 9.75417 16.2607 9.7175 16.3341 9.64417L17.4341 8.535C18.3416 7.63667 18.7816 6.76584 18.7816 5.88584C18.7907 4.97834 18.3507 4.09834 17.4341 3.19084Z" fill="#292D32"/>
<path d="M14.3096 10.5683C14.0438 10.4399 13.7871 10.3116 13.5396 10.1649C13.338 10.0458 13.1455 9.91742 12.953 9.77992C12.7971 9.67909 12.6138 9.53242 12.4396 9.38575C12.4213 9.37659 12.3571 9.32159 12.2838 9.24826C11.9813 8.99159 11.6421 8.66159 11.3396 8.29492C11.3121 8.27659 11.2663 8.21242 11.2021 8.12992C11.1105 8.01992 10.9546 7.83659 10.8171 7.62575C10.7071 7.48825 10.5788 7.28659 10.4596 7.08492C10.313 6.83742 10.1846 6.58992 10.0563 6.33325C10.0462 6.31157 10.0362 6.28995 10.0264 6.26839C9.8758 5.93644 9.44168 5.83869 9.18393 6.09645L3.97879 11.3016C3.85962 11.4208 3.74962 11.6499 3.72212 11.8058L3.22712 15.3166C3.13545 15.9399 3.30962 16.5266 3.69462 16.9208C4.02462 17.2416 4.48295 17.4158 4.97795 17.4158C5.08795 17.4158 5.19795 17.4066 5.30795 17.3883L8.82795 16.8933C8.99295 16.8658 9.22212 16.7558 9.33212 16.6366L14.5301 11.4386C14.7897 11.1791 14.692 10.733 14.3548 10.5878C14.3398 10.5813 14.3248 10.5748 14.3096 10.5683Z" fill="#292D32"/>
</svg>
