<svg width="160" height="160" viewBox="0 0 160 160" fill="none" xmlns="http://www.w3.org/2000/svg">
<path d="M145.067 106.133L102.4 29.3333C96.6665 18.9999 88.7332 13.3333 79.9998 13.3333C71.2665 13.3333 63.3332 18.9999 57.5999 29.3333L14.9332 106.133C9.53318 115.933 8.93318 125.333 13.2665 132.733C17.5999 140.133 26.1332 144.2 37.3332 144.2H122.667C133.867 144.2 142.4 140.133 146.733 132.733C151.067 125.333 150.467 115.867 145.067 106.133ZM74.9998 59.9999C74.9998 57.2666 77.2665 54.9999 79.9998 54.9999C82.7332 54.9999 84.9998 57.2666 84.9998 59.9999V93.3333C84.9998 96.0666 82.7332 98.3333 79.9998 98.3333C77.2665 98.3333 74.9998 96.0666 74.9998 93.3333V59.9999ZM84.7332 118.067C84.3998 118.333 84.0665 118.6 83.7332 118.867C83.3332 119.133 82.9332 119.333 82.5332 119.467C82.1332 119.667 81.7332 119.8 81.2665 119.867C80.8665 119.933 80.3998 120 79.9998 120C79.5999 120 79.1332 119.933 78.6665 119.867C78.2665 119.8 77.8665 119.667 77.4665 119.467C77.0665 119.333 76.6665 119.133 76.2665 118.867C75.9332 118.6 75.5999 118.333 75.2665 118.067C74.0665 116.8 73.3332 115.067 73.3332 113.333C73.3332 111.6 74.0665 109.867 75.2665 108.6C75.5999 108.333 75.9332 108.067 76.2665 107.8C76.6665 107.533 77.0665 107.333 77.4665 107.2C77.8665 107 78.2665 106.867 78.6665 106.8C79.5332 106.6 80.4665 106.6 81.2665 106.8C81.7332 106.867 82.1332 107 82.5332 107.2C82.9332 107.333 83.3332 107.533 83.7332 107.8C84.0665 108.067 84.3998 108.333 84.7332 108.6C85.9332 109.867 86.6665 111.6 86.6665 113.333C86.6665 115.067 85.9332 116.8 84.7332 118.067Z" fill="#FF3D60"/>
</svg>
