<svg width="50" height="50" viewBox="0 0 50 50" fill="none" xmlns="http://www.w3.org/2000/svg">
<path d="M33.3327 8.85352C33.3327 11.4368 31.2285 13.541 28.6452 13.541H21.3535C20.0618 13.541 18.8952 13.0202 18.041 12.166C17.1868 11.3118 16.666 10.1452 16.666 8.85352C16.666 6.27018 18.7702 4.16602 21.3535 4.16602H28.6452C29.9368 4.16602 31.1035 4.68685 31.9577 5.54102C32.8118 6.39518 33.3327 7.56185 33.3327 8.85352Z" fill="white"/>
<path d="M39.2298 10.4801C38.7507 10.0843 38.209 9.77179 37.6256 9.54263C37.0215 9.31346 36.4173 9.79263 36.2923 10.4176C35.584 13.9801 32.4382 16.6676 28.6465 16.6676H21.3548C19.2715 16.6676 17.3132 15.8551 15.834 14.376C14.7507 13.2926 14.0007 11.9176 13.709 10.4385C13.584 9.81346 12.959 9.31346 12.3548 9.56346C9.93815 10.5426 8.33398 12.751 8.33398 17.1885V37.501C8.33398 43.751 12.0632 45.8343 16.6673 45.8343H33.334C37.9382 45.8343 41.6673 43.751 41.6673 37.501V17.1885C41.6673 13.7926 40.7298 11.7093 39.2298 10.4801ZM16.6673 25.5218H25.0007C25.8548 25.5218 26.5632 26.2301 26.5632 27.0843C26.5632 27.9385 25.8548 28.6468 25.0007 28.6468H16.6673C15.8132 28.6468 15.1048 27.9385 15.1048 27.0843C15.1048 26.2301 15.8132 25.5218 16.6673 25.5218ZM33.334 36.9801H16.6673C15.8132 36.9801 15.1048 36.2718 15.1048 35.4176C15.1048 34.5635 15.8132 33.8551 16.6673 33.8551H33.334C34.1882 33.8551 34.8965 34.5635 34.8965 35.4176C34.8965 36.2718 34.1882 36.9801 33.334 36.9801Z" fill="white"/>
</svg>
