<svg width="30" height="30" viewBox="0 0 30 30" fill="none" xmlns="http://www.w3.org/2000/svg">
<path d="M26.2249 13.375C25.9499 8.5 22.3374 4.4375 17.5124 3.6125C17.4374 2.65 16.6374 1.875 15.6499 1.875H14.3999C13.4124 1.875 12.6249 2.6375 12.5374 3.6C7.6874 4.4 4.0499 8.475 3.7749 13.375C2.8874 13.525 2.2124 14.2875 2.2124 15.2125V16.4625C2.2124 17.5 3.0499 18.3375 4.0874 18.3375H5.3374C6.3749 18.3375 7.2124 17.5 7.2124 16.4625V15.2125C7.2124 14.2875 6.5374 13.525 5.6499 13.375C5.9124 9.475 8.7749 6.2375 12.5999 5.4875C12.8124 6.2875 13.5374 6.875 14.3999 6.875H15.6499C16.5124 6.875 17.2249 6.2875 17.4499 5.5C21.2499 6.2625 24.0874 9.5 24.3499 13.375C23.4624 13.525 22.7874 14.2875 22.7874 15.2125V16.4625C22.7874 17.5 23.6249 18.3375 24.6624 18.3375H25.9124C26.9499 18.3375 27.7874 17.5 27.7874 16.4625V15.2125C27.7874 14.2875 27.1124 13.5125 26.2249 13.375Z" fill="#292D32"/>
<path d="M19.7124 20.6875L17.6624 22.5H12.3499L10.2999 20.6875C9.11242 19.7125 9.11242 18.9625 10.0124 17.8125L13.6249 13.2375C13.8749 12.925 14.1624 12.7125 14.4874 12.6C14.8249 12.4875 15.1874 12.4875 15.5374 12.6C15.8499 12.7125 16.1374 12.925 16.3999 13.2375L19.9999 17.8C20.9124 18.95 20.8624 19.6625 19.7124 20.6875Z" fill="#292D32"/>
<path d="M16.6497 27.5008H13.4122C12.2622 27.5008 11.3997 26.5633 11.6247 25.5633L12.0122 23.8258C12.0872 23.4758 12.3997 23.2383 12.7497 23.2383H17.3122C17.6622 23.2383 17.9622 23.4758 18.0497 23.8258L18.4372 25.5633C18.6747 26.6258 17.8747 27.5008 16.6497 27.5008Z" fill="#292D32"/>
</svg>
