<svg width="21" height="22" viewBox="0 0 21 22" fill="none" xmlns="http://www.w3.org/2000/svg">
<path d="M15.4224 8.85352H5.50082C4.95719 8.8545 4.5166 9.29606 4.51562 9.83969V17.7566C4.51661 18.3003 4.95719 18.7409 5.50082 18.7418H15.4224C15.966 18.7409 16.4076 18.3003 16.4076 17.7566V9.83969C16.4076 9.29508 15.966 8.8545 15.4224 8.85352ZM13.8602 12.963L10.3855 16.4386C10.1628 16.6604 9.86645 16.7909 9.55245 16.8037H9.53478C9.43077 16.8037 9.33068 16.7624 9.25708 16.6888L7.05904 14.4908C6.81961 14.2533 6.68517 13.9305 6.68517 13.593C6.68517 13.2564 6.81961 12.9326 7.05904 12.6951C7.56145 12.2163 8.35234 12.2163 8.85475 12.6951L9.69274 13.5321L12.0635 11.1653C12.5659 10.6825 13.3597 10.6835 13.8602 11.1673C14.1006 11.4047 14.236 11.7276 14.236 12.0651C14.236 12.4027 14.1006 12.7265 13.8602 12.963Z" fill="#2431DD"/>
<path d="M20.7481 20.3868V6.60402C20.7501 5.88573 20.4646 5.19687 19.9553 4.69055L16.0596 0.792861C15.5533 0.283595 14.8644 -0.00197424 14.1461 1.02745e-05H12.3838V2.77506C12.3828 3.78086 11.5684 4.59531 10.5626 4.59629H6.0527C5.0469 4.59531 4.23245 3.78086 4.23147 2.77506V1.02745e-05H1.97063C1.08061 0.000991478 0.358402 0.723202 0.357422 1.61322V20.3907C0.357422 20.8176 0.527181 21.2268 0.82843 21.529C1.13065 21.8302 1.53984 22 1.96669 22H19.135C20.025 21.999 20.7472 21.2769 20.7481 20.3868ZM17.1921 17.757C17.1911 18.7343 16.3992 19.5262 15.4219 19.5272H5.50033C4.52299 19.5262 3.73109 18.7343 3.73012 17.757V9.83903C3.7311 8.86169 4.52297 8.0698 5.50033 8.06784H15.4219C16.3992 8.0698 17.1911 8.86169 17.1921 9.83903V17.757Z" fill="#2431DD"/>
<path d="M10.5617 3.81127C11.1337 3.81029 11.5969 3.34712 11.5979 2.77505V0H5.01758V2.77505C5.01856 3.34712 5.48173 3.81029 6.0538 3.81127H10.5617Z" fill="#2431DD"/>
<path d="M12.6205 11.7186L9.96902 14.365C9.81594 14.5181 9.56767 14.5181 9.41461 14.365L8.29989 13.2503C8.11051 13.0619 7.80434 13.0619 7.61398 13.2503C7.52174 13.3416 7.46973 13.4662 7.47072 13.5957C7.47072 13.7233 7.52174 13.8449 7.61202 13.9333L9.66484 15.9861H9.66582C9.72666 15.9625 9.78259 15.9262 9.82969 15.8801L13.3033 12.4055C13.3975 12.3162 13.4495 12.1925 13.4495 12.063C13.4495 11.9335 13.3975 11.8098 13.3033 11.7205C13.114 11.5341 12.8109 11.5331 12.6205 11.7186Z" fill="#2431DD"/>
</svg>
