<svg width="50" height="50" viewBox="0 0 50 50" fill="none" xmlns="http://www.w3.org/2000/svg">
<path d="M35.0939 34.3823C37.3866 31.9166 38.7995 28.6246 38.7995 25.0013C38.7995 17.3895 32.6084 11.1973 25.0003 11.1973C17.3923 11.1973 11.2012 17.3895 11.2012 25.0013C11.2012 28.6248 12.6163 31.9165 14.9068 34.3823C16.1382 32.8953 17.6698 31.7017 19.3849 30.8775C17.831 29.3928 16.8525 27.3123 16.8525 24.9989C16.8525 20.5065 20.5089 16.8493 25.0005 16.8493C29.4921 16.8493 33.1485 20.5064 33.1485 24.9989C33.1485 27.3123 32.1678 29.3927 30.6161 30.8775C32.3312 31.7017 33.8624 32.8953 35.0939 34.3823Z" fill="white"/>
<path d="M17.6602 36.6683C19.7872 38.012 22.3017 38.8026 24.9999 38.8026C27.6982 38.8026 30.2102 38.012 32.3397 36.6683C30.5418 34.4759 27.8594 33.1523 24.9999 33.1523C22.1405 33.1523 19.4583 34.4759 17.6602 36.6683Z" fill="white"/>
<path d="M29.5644 25.0018C29.5644 22.4824 27.5157 20.4355 24.999 20.4355C22.4823 20.4355 20.4336 22.4824 20.4336 25.0018C20.4336 27.519 22.4823 29.5681 24.999 29.5681C27.5157 29.5681 29.5644 27.519 29.5644 25.0018Z" fill="white"/>
<path d="M4.80731 20.4664L7.83224 22.3968C9.02116 14.5339 15.4764 8.38463 23.4874 7.69265L25.8966 3.91239L23.4852 0.13213C23.4583 0.091819 23.456 0.0425507 23.4359 0C11.2331 0.752464 1.39247 10.2077 0.078125 22.2557L2.88364 20.4686C3.46578 20.0924 4.22287 20.0924 4.80731 20.4664Z" fill="white"/>
<path d="M27.6986 0.0683594L29.5324 2.9483C29.9063 3.53502 29.904 4.28749 29.5301 4.87426L27.6426 7.83711C35.4747 9.04197 41.6011 15.4758 42.3038 23.4643C42.3262 23.4777 42.3508 23.4777 42.3732 23.4911L46.1528 25.9008L49.9323 23.4911C49.9547 23.4777 49.9771 23.4777 49.9995 23.4665C49.2561 11.2299 39.7713 1.36231 27.6986 0.0683594Z" fill="white"/>
<path d="M22.3546 42.1648C14.5224 40.96 8.4007 34.5284 7.69567 26.5445C7.67328 26.5311 7.64865 26.5266 7.62626 26.5132L3.84672 24.1035L0.0671731 26.5132C0.0447829 26.5266 0.0223919 26.5266 0 26.5378C0.743379 38.7722 10.2258 48.6416 22.3031 49.9338L20.4671 47.0561C20.0932 46.4694 20.0909 45.7169 20.4648 45.1324L22.3546 42.1648Z" fill="white"/>
<path d="M46.1539 29.8161C45.8181 29.8161 45.4844 29.7221 45.1911 29.534L42.1662 27.6035C40.9773 35.4641 34.522 41.614 26.511 42.3077L24.0996 46.0902L26.5088 49.8704C26.5357 49.9107 26.5379 49.9578 26.5581 50.0003C38.7632 49.2478 48.6038 39.7903 49.9181 27.7446L47.1126 29.5317C46.8238 29.7243 46.4876 29.8161 46.1539 29.8161Z" fill="white"/>
</svg>
