<svg width="82" height="82" viewBox="0 0 82 82" fill="none" xmlns="http://www.w3.org/2000/svg">
<path fill-rule="evenodd" clip-rule="evenodd" d="M26.8458 6.82917C28.604 4.80096 30.778 3.17482 33.2203 2.06117C35.6625 0.947528 38.3158 0.372457 41 0.375008C46.6542 0.375008 51.7209 2.87501 55.1542 6.82917C57.8321 6.63797 60.5198 7.02536 63.0347 7.96503C65.5496 8.9047 67.8328 10.3746 69.7292 12.275C71.6288 14.1711 73.0983 16.4536 74.0379 18.9677C74.9775 21.4818 75.3653 24.1686 75.175 26.8458C77.2025 28.6044 78.8278 30.7786 79.9408 33.2208C81.0537 35.663 81.6281 38.3161 81.625 41C81.6276 43.6842 81.0525 46.3375 79.9389 48.7797C78.8252 51.222 77.1991 53.396 75.1709 55.1542C75.3612 57.8314 74.9734 60.5182 74.0337 63.0323C73.0941 65.5464 71.6246 67.8289 69.725 69.725C67.8289 71.6246 65.5464 73.0941 63.0323 74.0337C60.5182 74.9733 57.8314 75.3612 55.1542 75.1708C53.396 77.1991 51.222 78.8252 48.7797 79.9388C46.3375 81.0525 43.6842 81.6275 41 81.625C38.3158 81.6275 35.6625 81.0525 33.2203 79.9388C30.778 78.8252 28.604 77.1991 26.8458 75.1708C24.1683 75.3626 21.4808 74.9758 18.9659 74.0369C16.451 73.0979 14.1676 71.6288 12.2708 69.7292C10.3707 67.8326 8.90091 65.5494 7.96126 63.0345C7.0216 60.5197 6.63408 57.832 6.82501 55.1542C4.79756 53.3956 3.1722 51.2214 2.05928 48.7792C0.946365 46.337 0.371943 43.6839 0.375012 41C0.375012 35.3458 2.87501 30.2792 6.82918 26.8458C6.63858 24.1686 7.02627 21.4817 7.96593 18.9676C8.90558 16.4535 10.3752 14.1709 12.275 12.275C14.1709 10.3752 16.4535 8.90558 18.9676 7.96592C21.4817 7.02627 24.1686 6.63858 26.8458 6.82917ZM56.0417 33.4417C56.2917 33.1086 56.4726 32.7288 56.5737 32.3248C56.6749 31.9208 56.6942 31.5006 56.6307 31.089C56.5671 30.6774 56.4219 30.2826 56.2036 29.9279C55.9853 29.5732 55.6983 29.2657 55.3594 29.0235C55.0206 28.7814 54.6367 28.6093 54.2305 28.5176C53.8242 28.4259 53.4037 28.4163 52.9937 28.4894C52.5836 28.5625 52.1924 28.7169 51.8428 28.9434C51.4933 29.1699 51.1926 29.464 50.9584 29.8083L37.475 48.6833L30.7083 41.9167C30.116 41.3647 29.3324 41.0642 28.5228 41.0784C27.7133 41.0927 26.9408 41.4207 26.3683 41.9932C25.7957 42.5658 25.4677 43.3382 25.4534 44.1478C25.4392 44.9574 25.7397 45.7409 26.2917 46.3333L35.6667 55.7083C35.9875 56.0289 36.3742 56.2758 36.8 56.4319C37.2257 56.5879 37.6804 56.6495 38.1324 56.6122C38.5843 56.575 39.0228 56.4398 39.4172 56.216C39.8117 55.9923 40.1527 55.6854 40.4167 55.3167L56.0417 33.4417Z" fill="#00C43B"/>
</svg>
