<svg width="151" height="150" viewBox="0 0 151 150" fill="none" xmlns="http://www.w3.org/2000/svg">
<path d="M138.125 105.126L118.562 59.3757C115 51.0007 109.688 46.2507 103.625 45.9382C97.625 45.6257 91.8125 49.8132 87.375 57.8132L75.5 79.1257C73 83.6257 69.4375 86.3132 65.5625 86.6257C61.625 87.0007 57.6875 84.9382 54.5 80.8757L53.125 79.1257C48.6875 73.5632 43.1875 70.8757 37.5625 71.4382C31.9375 72.0007 27.125 75.8757 23.9375 82.1882L13.125 103.751C9.25001 111.563 9.62501 120.626 14.1875 128.001C18.75 135.376 26.6875 139.813 35.375 139.813H115.125C123.5 139.813 131.313 135.626 135.938 128.626C140.688 121.626 141.438 112.813 138.125 105.126Z" fill="#1AC600"/>
<path d="M44.0625 52.375C55.7295 52.375 65.1875 42.917 65.1875 31.25C65.1875 19.583 55.7295 10.125 44.0625 10.125C32.3955 10.125 22.9375 19.583 22.9375 31.25C22.9375 42.917 32.3955 52.375 44.0625 52.375Z" fill="#1AC600"/>
</svg>
