<svg width="36" height="36" viewBox="0 0 36 36" fill="none" xmlns="http://www.w3.org/2000/svg">
<path d="M35.8506 10.4587C36.2892 11.6227 35.6988 12.916 34.5349 13.3546C33.3709 13.7931 32.072 13.2027 31.6391 12.0388C30.357 8.62566 29.716 6.91628 28.7489 6.01099C28.3496 5.63988 27.9054 5.33062 27.4162 5.08883C26.2354 4.49842 24.4023 4.49842 20.7587 4.49842H15.2369C11.5933 4.49842 9.76581 4.49842 8.57937 5.08883C8.09018 5.33062 7.64596 5.63988 7.24673 6.01099C6.27959 6.91066 5.63857 8.62566 4.35654 12.0388C3.92357 13.2027 2.62468 13.7931 1.46073 13.3546C0.296778 12.916 -0.293631 11.6227 0.144958 10.4587C1.62379 6.51706 2.43912 4.3466 4.17661 2.72157C4.89072 2.05244 5.70043 1.49577 6.5776 1.05718C8.7087 6.77109e-05 11.0254 6.48499e-05 15.2369 6.48499e-05H20.7587C24.9702 6.48499e-05 27.2869 6.77109e-05 29.418 1.05718C30.2952 1.49015 31.0993 2.05244 31.819 2.72157C33.5565 4.34098 34.3718 6.51706 35.8506 10.4587Z" fill="#377DFF"/>
<path d="M7.71956 22.1001C6.53874 21.2735 6.43753 19.6316 7.4103 18.6588L13.4381 12.6311C14.096 11.9732 14.8607 11.4334 15.7323 11.1072C18.1501 10.1963 20.7535 10.8261 22.4685 12.5411L28.5863 18.6588C29.5703 19.6429 29.4522 21.3185 28.2208 22.1394C27.3268 22.7355 26.1234 22.5612 25.3644 21.8021L20.2475 16.6852V29.7136C20.2475 30.0903 20.2475 32.1033 20.2475 33.7508C20.2475 34.9935 19.241 36 17.9983 36C16.7556 36 15.7491 34.9935 15.7491 33.7508V21.9426V16.6908L10.6829 21.7571C9.89564 22.5443 8.63048 22.7467 7.71956 22.1057V22.1001Z" fill="#377DFF"/>
</svg>
