<svg width="178" height="35" viewBox="0 0 178 35" fill="none" xmlns="http://www.w3.org/2000/svg">
<path d="M15.452 17.18L22.868 1.196H27.296L30.32 26H25.028L23.3 11.132L17.504 23.156H13.436L7.604 11.132L5.84 26H0.548L3.608 1.196H7.964L15.452 17.18ZM46.385 26V24.092C45.341 25.676 42.749 26.324 41.489 26.324C37.205 26.324 32.921 22.94 32.921 17.576C32.921 12.212 37.205 8.828 41.489 8.828C42.605 8.828 45.017 9.224 46.385 11.06V9.188H51.353V26H46.385ZM38.105 17.576C38.105 19.988 40.193 21.572 42.317 21.572C44.369 21.572 46.385 20.096 46.385 17.576C46.385 15.092 44.369 13.58 42.317 13.58C40.193 13.58 38.105 15.164 38.105 17.576ZM62.524 9.188H66.052V13.148H62.524V26H57.556V13.148H54.496V9.188H57.556V2.744H62.524V9.188ZM74.1244 17.108V26H69.1204V0.0439994H74.1244V11.816C74.7724 9.728 77.2564 8.828 78.8404 8.828C83.3044 8.828 85.5724 11.78 85.5724 16.856V26H80.5684V17.036C80.5684 14.84 79.0204 13.688 77.4724 13.688C75.8884 13.688 74.1244 14.552 74.1244 17.108ZM97.6721 21.392C99.7961 21.392 101.488 19.88 101.488 17.54C101.488 15.236 99.7961 13.724 97.6721 13.724C95.6201 13.724 93.8921 15.236 93.8921 17.54C93.8921 19.88 95.6201 21.392 97.6721 21.392ZM97.6721 26.288C92.8841 26.288 88.9601 22.832 88.9601 17.54C88.9601 12.212 92.8841 8.828 97.6721 8.828C102.424 8.828 106.42 12.212 106.42 17.54C106.42 22.832 102.424 26.288 97.6721 26.288ZM110.007 0.0439994H115.011V26H110.007V0.0439994ZM127.309 21.392C129.433 21.392 131.125 19.88 131.125 17.54C131.125 15.236 129.433 13.724 127.309 13.724C125.257 13.724 123.529 15.236 123.529 17.54C123.529 19.88 125.257 21.392 127.309 21.392ZM127.309 26.288C122.521 26.288 118.597 22.832 118.597 17.54C118.597 12.212 122.521 8.828 127.309 8.828C132.061 8.828 136.057 12.212 136.057 17.54C136.057 22.832 132.061 26.288 127.309 26.288ZM151.956 17.54C151.956 15.056 149.976 13.58 147.888 13.58C145.728 13.58 143.856 15.164 143.856 17.54C143.856 20.024 145.728 21.644 147.888 21.644C149.94 21.644 151.956 20.024 151.956 17.54ZM139.14 29.168L143.172 27.188C143.748 28.772 145.728 29.888 147.42 29.888C151.272 29.888 152.244 27.224 152.064 23.912C151.236 25.46 149.148 26.36 147.024 26.36C142.704 26.36 138.636 22.976 138.636 17.648C138.636 12.248 142.704 8.828 147.024 8.828C149.112 8.828 151.2 9.764 152.064 11.276V9.188H156.924V23.66C156.924 30.896 153.36 34.388 147.42 34.388C143.712 34.388 140.58 32.3 139.14 29.168ZM177.458 9.188L167.09 34.244H161.798L165.83 24.272L159.35 9.188H164.678L168.386 18.728L172.13 9.188H177.458Z" fill="#377DFF"/>
</svg>
